G75*
%MOIN*%
%OFA0B0*%
%FSLAX25Y25*%
%IPPOS*%
%LPD*%
%AMOC8*
5,1,8,0,0,1.08239X$1,22.5*
%
%ADD10C,0.01000*%
%ADD11C,0.00300*%
%ADD12C,0.00800*%
%ADD13C,0.00400*%
%ADD14C,0.01600*%
%ADD15C,0.00600*%
D10*
X0159800Y0092800D02*
X0159800Y0100700D01*
X0161800Y0100100D02*
X0161800Y0092800D01*
X0161798Y0092753D01*
X0161793Y0092706D01*
X0161783Y0092660D01*
X0161771Y0092615D01*
X0161754Y0092570D01*
X0161735Y0092528D01*
X0161712Y0092487D01*
X0161685Y0092447D01*
X0161656Y0092410D01*
X0161624Y0092376D01*
X0161590Y0092344D01*
X0161553Y0092315D01*
X0161513Y0092288D01*
X0161472Y0092265D01*
X0161430Y0092246D01*
X0161385Y0092229D01*
X0161340Y0092217D01*
X0161294Y0092207D01*
X0161247Y0092202D01*
X0161200Y0092200D01*
X0160400Y0092200D01*
X0160353Y0092202D01*
X0160306Y0092207D01*
X0160260Y0092217D01*
X0160215Y0092229D01*
X0160170Y0092246D01*
X0160128Y0092265D01*
X0160087Y0092288D01*
X0160047Y0092315D01*
X0160010Y0092344D01*
X0159976Y0092376D01*
X0159944Y0092410D01*
X0159915Y0092447D01*
X0159888Y0092487D01*
X0159865Y0092528D01*
X0159846Y0092570D01*
X0159829Y0092615D01*
X0159817Y0092660D01*
X0159807Y0092706D01*
X0159802Y0092753D01*
X0159800Y0092800D01*
X0163800Y0092800D02*
X0163800Y0100100D01*
X0163798Y0100147D01*
X0163793Y0100194D01*
X0163783Y0100240D01*
X0163771Y0100285D01*
X0163754Y0100330D01*
X0163735Y0100372D01*
X0163712Y0100413D01*
X0163685Y0100453D01*
X0163656Y0100490D01*
X0163624Y0100524D01*
X0163590Y0100556D01*
X0163553Y0100585D01*
X0163513Y0100612D01*
X0163472Y0100635D01*
X0163430Y0100654D01*
X0163385Y0100671D01*
X0163340Y0100683D01*
X0163294Y0100693D01*
X0163247Y0100698D01*
X0163200Y0100700D01*
X0162400Y0100700D01*
X0162353Y0100698D01*
X0162306Y0100693D01*
X0162260Y0100683D01*
X0162215Y0100671D01*
X0162170Y0100654D01*
X0162128Y0100635D01*
X0162087Y0100612D01*
X0162047Y0100585D01*
X0162010Y0100556D01*
X0161976Y0100524D01*
X0161944Y0100490D01*
X0161915Y0100453D01*
X0161888Y0100413D01*
X0161865Y0100372D01*
X0161846Y0100330D01*
X0161829Y0100285D01*
X0161817Y0100240D01*
X0161807Y0100194D01*
X0161802Y0100147D01*
X0161800Y0100100D01*
X0165800Y0100700D02*
X0165800Y0092800D01*
X0165798Y0092753D01*
X0165793Y0092706D01*
X0165783Y0092660D01*
X0165771Y0092615D01*
X0165754Y0092570D01*
X0165735Y0092528D01*
X0165712Y0092487D01*
X0165685Y0092447D01*
X0165656Y0092410D01*
X0165624Y0092376D01*
X0165590Y0092344D01*
X0165553Y0092315D01*
X0165513Y0092288D01*
X0165472Y0092265D01*
X0165430Y0092246D01*
X0165385Y0092229D01*
X0165340Y0092217D01*
X0165294Y0092207D01*
X0165247Y0092202D01*
X0165200Y0092200D01*
X0164400Y0092200D01*
X0164353Y0092202D01*
X0164306Y0092207D01*
X0164260Y0092217D01*
X0164215Y0092229D01*
X0164170Y0092246D01*
X0164128Y0092265D01*
X0164087Y0092288D01*
X0164047Y0092315D01*
X0164010Y0092344D01*
X0163976Y0092376D01*
X0163944Y0092410D01*
X0163915Y0092447D01*
X0163888Y0092487D01*
X0163865Y0092528D01*
X0163846Y0092570D01*
X0163829Y0092615D01*
X0163817Y0092660D01*
X0163807Y0092706D01*
X0163802Y0092753D01*
X0163800Y0092800D01*
D11*
X0177150Y0125306D02*
X0177150Y0126112D01*
X0177150Y0125306D02*
X0180050Y0125306D01*
X0180050Y0126112D01*
X0180048Y0126167D01*
X0180042Y0126222D01*
X0180033Y0126276D01*
X0180020Y0126329D01*
X0180003Y0126382D01*
X0179983Y0126433D01*
X0179960Y0126483D01*
X0179933Y0126531D01*
X0179902Y0126577D01*
X0179869Y0126621D01*
X0179833Y0126662D01*
X0179794Y0126701D01*
X0179753Y0126737D01*
X0179709Y0126770D01*
X0179663Y0126801D01*
X0179615Y0126828D01*
X0179565Y0126851D01*
X0179514Y0126871D01*
X0179461Y0126888D01*
X0179408Y0126901D01*
X0179354Y0126910D01*
X0179299Y0126916D01*
X0179244Y0126918D01*
X0177956Y0126918D01*
X0177901Y0126916D01*
X0177846Y0126910D01*
X0177792Y0126901D01*
X0177739Y0126888D01*
X0177686Y0126871D01*
X0177635Y0126851D01*
X0177585Y0126828D01*
X0177537Y0126801D01*
X0177491Y0126770D01*
X0177447Y0126737D01*
X0177406Y0126701D01*
X0177367Y0126662D01*
X0177331Y0126621D01*
X0177298Y0126577D01*
X0177267Y0126531D01*
X0177240Y0126483D01*
X0177217Y0126433D01*
X0177197Y0126382D01*
X0177180Y0126329D01*
X0177167Y0126276D01*
X0177158Y0126222D01*
X0177152Y0126167D01*
X0177150Y0126112D01*
X0177150Y0128282D02*
X0177150Y0129249D01*
X0177152Y0129298D01*
X0177158Y0129347D01*
X0177167Y0129396D01*
X0177180Y0129443D01*
X0177197Y0129490D01*
X0177217Y0129535D01*
X0177240Y0129578D01*
X0177267Y0129620D01*
X0177297Y0129659D01*
X0177330Y0129696D01*
X0177366Y0129730D01*
X0177404Y0129761D01*
X0177444Y0129790D01*
X0177486Y0129815D01*
X0177531Y0129837D01*
X0177576Y0129855D01*
X0177623Y0129870D01*
X0177671Y0129881D01*
X0177720Y0129889D01*
X0177769Y0129893D01*
X0177819Y0129893D01*
X0177868Y0129889D01*
X0177917Y0129881D01*
X0177965Y0129870D01*
X0178012Y0129855D01*
X0178057Y0129837D01*
X0178102Y0129815D01*
X0178144Y0129790D01*
X0178184Y0129761D01*
X0178222Y0129730D01*
X0178258Y0129696D01*
X0178291Y0129659D01*
X0178321Y0129620D01*
X0178348Y0129578D01*
X0178371Y0129535D01*
X0178391Y0129490D01*
X0178408Y0129443D01*
X0178421Y0129396D01*
X0178430Y0129347D01*
X0178436Y0129298D01*
X0178438Y0129249D01*
X0178439Y0129249D02*
X0178439Y0128605D01*
X0178438Y0129088D02*
X0178440Y0129143D01*
X0178446Y0129198D01*
X0178455Y0129252D01*
X0178468Y0129305D01*
X0178485Y0129358D01*
X0178505Y0129409D01*
X0178528Y0129459D01*
X0178555Y0129507D01*
X0178586Y0129553D01*
X0178619Y0129597D01*
X0178655Y0129638D01*
X0178694Y0129677D01*
X0178735Y0129713D01*
X0178779Y0129746D01*
X0178825Y0129777D01*
X0178873Y0129804D01*
X0178923Y0129827D01*
X0178974Y0129847D01*
X0179027Y0129864D01*
X0179080Y0129877D01*
X0179134Y0129886D01*
X0179189Y0129892D01*
X0179244Y0129894D01*
X0179299Y0129892D01*
X0179354Y0129886D01*
X0179408Y0129877D01*
X0179461Y0129864D01*
X0179514Y0129847D01*
X0179565Y0129827D01*
X0179615Y0129804D01*
X0179663Y0129777D01*
X0179709Y0129746D01*
X0179753Y0129713D01*
X0179794Y0129677D01*
X0179833Y0129638D01*
X0179869Y0129597D01*
X0179902Y0129553D01*
X0179933Y0129507D01*
X0179960Y0129459D01*
X0179983Y0129409D01*
X0180003Y0129358D01*
X0180020Y0129305D01*
X0180033Y0129252D01*
X0180042Y0129198D01*
X0180048Y0129143D01*
X0180050Y0129088D01*
X0180050Y0128282D01*
X0177150Y0135370D02*
X0177150Y0136981D01*
X0177150Y0136175D02*
X0180050Y0136175D01*
X0180050Y0137897D02*
X0177150Y0139830D01*
X0177150Y0137897D02*
X0180050Y0139830D01*
X0180050Y0145284D02*
X0177150Y0145284D01*
X0177150Y0146090D01*
X0177152Y0146145D01*
X0177158Y0146200D01*
X0177167Y0146254D01*
X0177180Y0146307D01*
X0177197Y0146360D01*
X0177217Y0146411D01*
X0177240Y0146461D01*
X0177267Y0146509D01*
X0177298Y0146555D01*
X0177331Y0146599D01*
X0177367Y0146640D01*
X0177406Y0146679D01*
X0177447Y0146715D01*
X0177491Y0146748D01*
X0177537Y0146779D01*
X0177585Y0146806D01*
X0177635Y0146829D01*
X0177686Y0146849D01*
X0177739Y0146866D01*
X0177792Y0146879D01*
X0177846Y0146888D01*
X0177901Y0146894D01*
X0177956Y0146896D01*
X0178011Y0146894D01*
X0178066Y0146888D01*
X0178120Y0146879D01*
X0178173Y0146866D01*
X0178226Y0146849D01*
X0178277Y0146829D01*
X0178327Y0146806D01*
X0178375Y0146779D01*
X0178421Y0146748D01*
X0178465Y0146715D01*
X0178506Y0146679D01*
X0178545Y0146640D01*
X0178581Y0146599D01*
X0178614Y0146555D01*
X0178645Y0146509D01*
X0178672Y0146461D01*
X0178695Y0146411D01*
X0178715Y0146360D01*
X0178732Y0146307D01*
X0178745Y0146254D01*
X0178754Y0146200D01*
X0178760Y0146145D01*
X0178762Y0146090D01*
X0178761Y0146090D02*
X0178761Y0145284D01*
X0178761Y0146251D02*
X0180050Y0146895D01*
X0180050Y0147983D02*
X0177150Y0149916D01*
X0177150Y0147983D02*
X0180050Y0149916D01*
X0180050Y0155274D02*
X0177150Y0156241D01*
X0180050Y0157207D01*
X0179325Y0156966D02*
X0179325Y0155516D01*
X0179244Y0158315D02*
X0178439Y0158315D01*
X0178439Y0159282D01*
X0178439Y0158315D02*
X0178369Y0158317D01*
X0178300Y0158323D01*
X0178230Y0158332D01*
X0178162Y0158345D01*
X0178094Y0158362D01*
X0178027Y0158382D01*
X0177962Y0158407D01*
X0177898Y0158434D01*
X0177835Y0158465D01*
X0177774Y0158500D01*
X0177716Y0158537D01*
X0177659Y0158578D01*
X0177605Y0158622D01*
X0177553Y0158668D01*
X0177503Y0158718D01*
X0177457Y0158770D01*
X0177413Y0158824D01*
X0177372Y0158881D01*
X0177335Y0158939D01*
X0177300Y0159000D01*
X0177269Y0159063D01*
X0177242Y0159127D01*
X0177217Y0159192D01*
X0177197Y0159259D01*
X0177180Y0159327D01*
X0177167Y0159395D01*
X0177158Y0159465D01*
X0177152Y0159534D01*
X0177150Y0159604D01*
X0179083Y0159926D02*
X0179244Y0159926D01*
X0179083Y0159926D02*
X0179035Y0159924D01*
X0178987Y0159919D01*
X0178940Y0159910D01*
X0178893Y0159897D01*
X0178848Y0159881D01*
X0178804Y0159862D01*
X0178761Y0159840D01*
X0178720Y0159814D01*
X0178681Y0159786D01*
X0178645Y0159754D01*
X0178611Y0159720D01*
X0178580Y0159684D01*
X0178551Y0159645D01*
X0178525Y0159604D01*
X0178503Y0159561D01*
X0178484Y0159517D01*
X0178468Y0159472D01*
X0178455Y0159425D01*
X0178446Y0159378D01*
X0178441Y0159330D01*
X0178439Y0159282D01*
X0179244Y0159927D02*
X0179299Y0159925D01*
X0179354Y0159919D01*
X0179408Y0159910D01*
X0179461Y0159897D01*
X0179514Y0159880D01*
X0179565Y0159860D01*
X0179615Y0159837D01*
X0179663Y0159810D01*
X0179709Y0159779D01*
X0179753Y0159746D01*
X0179794Y0159710D01*
X0179833Y0159671D01*
X0179869Y0159630D01*
X0179902Y0159586D01*
X0179933Y0159540D01*
X0179960Y0159492D01*
X0179983Y0159442D01*
X0180003Y0159391D01*
X0180020Y0159338D01*
X0180033Y0159285D01*
X0180042Y0159231D01*
X0180048Y0159176D01*
X0180050Y0159121D01*
X0180048Y0159066D01*
X0180042Y0159011D01*
X0180033Y0158957D01*
X0180020Y0158904D01*
X0180003Y0158851D01*
X0179983Y0158800D01*
X0179960Y0158750D01*
X0179933Y0158702D01*
X0179902Y0158656D01*
X0179869Y0158612D01*
X0179833Y0158571D01*
X0179794Y0158532D01*
X0179753Y0158496D01*
X0179709Y0158463D01*
X0179663Y0158432D01*
X0179615Y0158405D01*
X0179565Y0158382D01*
X0179514Y0158362D01*
X0179461Y0158345D01*
X0179408Y0158332D01*
X0179354Y0158323D01*
X0179299Y0158317D01*
X0179244Y0158315D01*
X0200350Y0158406D02*
X0203250Y0158406D01*
X0200350Y0156794D01*
X0203250Y0156794D01*
X0203250Y0155334D02*
X0203250Y0154367D01*
X0203248Y0154319D01*
X0203243Y0154271D01*
X0203234Y0154224D01*
X0203221Y0154177D01*
X0203205Y0154132D01*
X0203186Y0154088D01*
X0203164Y0154045D01*
X0203138Y0154004D01*
X0203109Y0153965D01*
X0203078Y0153929D01*
X0203044Y0153895D01*
X0203008Y0153864D01*
X0202969Y0153835D01*
X0202928Y0153809D01*
X0202885Y0153787D01*
X0202841Y0153768D01*
X0202796Y0153752D01*
X0202749Y0153739D01*
X0202702Y0153730D01*
X0202654Y0153725D01*
X0202606Y0153723D01*
X0202606Y0153722D02*
X0200994Y0153722D01*
X0200994Y0153723D02*
X0200943Y0153725D01*
X0200893Y0153731D01*
X0200844Y0153741D01*
X0200795Y0153755D01*
X0200748Y0153772D01*
X0200702Y0153793D01*
X0200658Y0153818D01*
X0200615Y0153846D01*
X0200576Y0153877D01*
X0200539Y0153912D01*
X0200504Y0153949D01*
X0200473Y0153988D01*
X0200445Y0154030D01*
X0200420Y0154075D01*
X0200399Y0154121D01*
X0200382Y0154168D01*
X0200368Y0154217D01*
X0200358Y0154266D01*
X0200352Y0154316D01*
X0200350Y0154367D01*
X0200350Y0155334D01*
X0201639Y0155334D02*
X0203250Y0155334D01*
X0201639Y0155334D02*
X0201639Y0154850D01*
X0201156Y0151478D02*
X0202444Y0151478D01*
X0202499Y0151476D01*
X0202554Y0151470D01*
X0202608Y0151461D01*
X0202661Y0151448D01*
X0202714Y0151431D01*
X0202765Y0151411D01*
X0202815Y0151388D01*
X0202863Y0151361D01*
X0202909Y0151330D01*
X0202953Y0151297D01*
X0202994Y0151261D01*
X0203033Y0151222D01*
X0203069Y0151181D01*
X0203102Y0151137D01*
X0203133Y0151091D01*
X0203160Y0151043D01*
X0203183Y0150993D01*
X0203203Y0150942D01*
X0203220Y0150889D01*
X0203233Y0150836D01*
X0203242Y0150782D01*
X0203248Y0150727D01*
X0203250Y0150672D01*
X0203250Y0149866D01*
X0200350Y0149866D01*
X0200350Y0150672D01*
X0200352Y0150727D01*
X0200358Y0150782D01*
X0200367Y0150836D01*
X0200380Y0150889D01*
X0200397Y0150942D01*
X0200417Y0150993D01*
X0200440Y0151043D01*
X0200467Y0151091D01*
X0200498Y0151137D01*
X0200531Y0151181D01*
X0200567Y0151222D01*
X0200606Y0151261D01*
X0200647Y0151297D01*
X0200691Y0151330D01*
X0200737Y0151361D01*
X0200785Y0151388D01*
X0200835Y0151411D01*
X0200886Y0151431D01*
X0200939Y0151448D01*
X0200992Y0151461D01*
X0201046Y0151470D01*
X0201101Y0151476D01*
X0201156Y0151478D01*
X0200350Y0148406D02*
X0203250Y0148406D01*
X0200350Y0146794D01*
X0203250Y0146794D01*
X0203250Y0145334D02*
X0203250Y0144367D01*
X0203248Y0144319D01*
X0203243Y0144271D01*
X0203234Y0144224D01*
X0203221Y0144177D01*
X0203205Y0144132D01*
X0203186Y0144088D01*
X0203164Y0144045D01*
X0203138Y0144004D01*
X0203109Y0143965D01*
X0203078Y0143929D01*
X0203044Y0143895D01*
X0203008Y0143864D01*
X0202969Y0143835D01*
X0202928Y0143809D01*
X0202885Y0143787D01*
X0202841Y0143768D01*
X0202796Y0143752D01*
X0202749Y0143739D01*
X0202702Y0143730D01*
X0202654Y0143725D01*
X0202606Y0143723D01*
X0202606Y0143722D02*
X0200994Y0143722D01*
X0200994Y0143723D02*
X0200943Y0143725D01*
X0200893Y0143731D01*
X0200844Y0143741D01*
X0200795Y0143755D01*
X0200748Y0143772D01*
X0200702Y0143793D01*
X0200658Y0143818D01*
X0200615Y0143846D01*
X0200576Y0143877D01*
X0200539Y0143912D01*
X0200504Y0143949D01*
X0200473Y0143988D01*
X0200445Y0144030D01*
X0200420Y0144075D01*
X0200399Y0144121D01*
X0200382Y0144168D01*
X0200368Y0144217D01*
X0200358Y0144266D01*
X0200352Y0144316D01*
X0200350Y0144367D01*
X0200350Y0145334D01*
X0201639Y0145334D02*
X0201639Y0144850D01*
X0201639Y0145334D02*
X0203250Y0145334D01*
X0203250Y0140960D02*
X0203250Y0140316D01*
X0203248Y0140268D01*
X0203243Y0140220D01*
X0203234Y0140173D01*
X0203221Y0140126D01*
X0203205Y0140081D01*
X0203186Y0140037D01*
X0203164Y0139994D01*
X0203138Y0139953D01*
X0203109Y0139914D01*
X0203078Y0139878D01*
X0203044Y0139844D01*
X0203008Y0139813D01*
X0202969Y0139784D01*
X0202928Y0139758D01*
X0202885Y0139736D01*
X0202841Y0139717D01*
X0202796Y0139701D01*
X0202749Y0139688D01*
X0202702Y0139679D01*
X0202654Y0139674D01*
X0202606Y0139672D01*
X0200994Y0139672D01*
X0200943Y0139674D01*
X0200893Y0139680D01*
X0200844Y0139690D01*
X0200795Y0139704D01*
X0200748Y0139721D01*
X0200702Y0139742D01*
X0200658Y0139767D01*
X0200615Y0139795D01*
X0200576Y0139826D01*
X0200539Y0139861D01*
X0200504Y0139898D01*
X0200473Y0139937D01*
X0200445Y0139979D01*
X0200420Y0140024D01*
X0200399Y0140070D01*
X0200382Y0140117D01*
X0200368Y0140166D01*
X0200358Y0140215D01*
X0200352Y0140265D01*
X0200350Y0140316D01*
X0200350Y0140960D01*
X0200350Y0138560D02*
X0200350Y0137916D01*
X0200352Y0137865D01*
X0200358Y0137815D01*
X0200368Y0137766D01*
X0200382Y0137717D01*
X0200399Y0137670D01*
X0200420Y0137624D01*
X0200445Y0137579D01*
X0200473Y0137537D01*
X0200504Y0137498D01*
X0200539Y0137461D01*
X0200576Y0137426D01*
X0200615Y0137395D01*
X0200658Y0137367D01*
X0200702Y0137342D01*
X0200748Y0137321D01*
X0200795Y0137304D01*
X0200844Y0137290D01*
X0200893Y0137280D01*
X0200943Y0137274D01*
X0200994Y0137272D01*
X0202606Y0137272D01*
X0202654Y0137274D01*
X0202702Y0137279D01*
X0202749Y0137288D01*
X0202796Y0137301D01*
X0202841Y0137317D01*
X0202885Y0137336D01*
X0202928Y0137358D01*
X0202969Y0137384D01*
X0203008Y0137413D01*
X0203044Y0137444D01*
X0203078Y0137478D01*
X0203109Y0137514D01*
X0203138Y0137553D01*
X0203164Y0137594D01*
X0203186Y0137637D01*
X0203205Y0137681D01*
X0203221Y0137726D01*
X0203234Y0137773D01*
X0203243Y0137820D01*
X0203248Y0137868D01*
X0203250Y0137916D01*
X0203250Y0138560D01*
X0203250Y0135206D02*
X0200350Y0134240D01*
X0200350Y0136173D02*
X0203250Y0135206D01*
X0203250Y0130960D02*
X0203250Y0130316D01*
X0203248Y0130268D01*
X0203243Y0130220D01*
X0203234Y0130173D01*
X0203221Y0130126D01*
X0203205Y0130081D01*
X0203186Y0130037D01*
X0203164Y0129994D01*
X0203138Y0129953D01*
X0203109Y0129914D01*
X0203078Y0129878D01*
X0203044Y0129844D01*
X0203008Y0129813D01*
X0202969Y0129784D01*
X0202928Y0129758D01*
X0202885Y0129736D01*
X0202841Y0129717D01*
X0202796Y0129701D01*
X0202749Y0129688D01*
X0202702Y0129679D01*
X0202654Y0129674D01*
X0202606Y0129672D01*
X0200994Y0129672D01*
X0200943Y0129674D01*
X0200893Y0129680D01*
X0200844Y0129690D01*
X0200795Y0129704D01*
X0200748Y0129721D01*
X0200702Y0129742D01*
X0200658Y0129767D01*
X0200615Y0129795D01*
X0200576Y0129826D01*
X0200539Y0129861D01*
X0200504Y0129898D01*
X0200473Y0129937D01*
X0200445Y0129979D01*
X0200420Y0130024D01*
X0200399Y0130070D01*
X0200382Y0130117D01*
X0200368Y0130166D01*
X0200358Y0130215D01*
X0200352Y0130265D01*
X0200350Y0130316D01*
X0200350Y0130960D01*
X0200350Y0128560D02*
X0200350Y0127916D01*
X0200352Y0127865D01*
X0200358Y0127815D01*
X0200368Y0127766D01*
X0200382Y0127717D01*
X0200399Y0127670D01*
X0200420Y0127624D01*
X0200445Y0127579D01*
X0200473Y0127537D01*
X0200504Y0127498D01*
X0200539Y0127461D01*
X0200576Y0127426D01*
X0200615Y0127395D01*
X0200658Y0127367D01*
X0200702Y0127342D01*
X0200748Y0127321D01*
X0200795Y0127304D01*
X0200844Y0127290D01*
X0200893Y0127280D01*
X0200943Y0127274D01*
X0200994Y0127272D01*
X0202606Y0127272D01*
X0202654Y0127274D01*
X0202702Y0127279D01*
X0202749Y0127288D01*
X0202796Y0127301D01*
X0202841Y0127317D01*
X0202885Y0127336D01*
X0202928Y0127358D01*
X0202969Y0127384D01*
X0203008Y0127413D01*
X0203044Y0127444D01*
X0203078Y0127478D01*
X0203109Y0127514D01*
X0203138Y0127553D01*
X0203164Y0127594D01*
X0203186Y0127637D01*
X0203205Y0127681D01*
X0203221Y0127726D01*
X0203234Y0127773D01*
X0203243Y0127820D01*
X0203248Y0127868D01*
X0203250Y0127916D01*
X0203250Y0128560D01*
X0203250Y0125206D02*
X0200350Y0126173D01*
X0200350Y0124240D02*
X0203250Y0125206D01*
X0203250Y0159866D02*
X0200350Y0159866D01*
X0200350Y0160672D01*
X0200352Y0160727D01*
X0200358Y0160782D01*
X0200367Y0160836D01*
X0200380Y0160889D01*
X0200397Y0160942D01*
X0200417Y0160993D01*
X0200440Y0161043D01*
X0200467Y0161091D01*
X0200498Y0161137D01*
X0200531Y0161181D01*
X0200567Y0161222D01*
X0200606Y0161261D01*
X0200647Y0161297D01*
X0200691Y0161330D01*
X0200737Y0161361D01*
X0200785Y0161388D01*
X0200835Y0161411D01*
X0200886Y0161431D01*
X0200939Y0161448D01*
X0200992Y0161461D01*
X0201046Y0161470D01*
X0201101Y0161476D01*
X0201156Y0161478D01*
X0202444Y0161478D01*
X0202499Y0161476D01*
X0202554Y0161470D01*
X0202608Y0161461D01*
X0202661Y0161448D01*
X0202714Y0161431D01*
X0202765Y0161411D01*
X0202815Y0161388D01*
X0202863Y0161361D01*
X0202909Y0161330D01*
X0202953Y0161297D01*
X0202994Y0161261D01*
X0203033Y0161222D01*
X0203069Y0161181D01*
X0203102Y0161137D01*
X0203133Y0161091D01*
X0203160Y0161043D01*
X0203183Y0160993D01*
X0203203Y0160942D01*
X0203220Y0160889D01*
X0203233Y0160836D01*
X0203242Y0160782D01*
X0203248Y0160727D01*
X0203250Y0160672D01*
X0203250Y0159866D01*
X0113155Y0210317D02*
X0111989Y0210317D01*
X0112455Y0211950D01*
X0112805Y0210783D02*
X0112805Y0209850D01*
X0110003Y0210141D02*
X0109970Y0210213D01*
X0109941Y0210286D01*
X0109915Y0210360D01*
X0109892Y0210435D01*
X0109872Y0210511D01*
X0109856Y0210588D01*
X0109844Y0210665D01*
X0109835Y0210743D01*
X0109830Y0210822D01*
X0109828Y0210900D01*
X0110996Y0210900D02*
X0110994Y0210978D01*
X0110989Y0211057D01*
X0110980Y0211135D01*
X0110968Y0211212D01*
X0110952Y0211289D01*
X0110932Y0211365D01*
X0110909Y0211440D01*
X0110883Y0211514D01*
X0110854Y0211587D01*
X0110821Y0211659D01*
X0110879Y0211483D02*
X0109945Y0210317D01*
X0110412Y0209850D02*
X0110450Y0209852D01*
X0110488Y0209857D01*
X0110525Y0209865D01*
X0110562Y0209877D01*
X0110597Y0209892D01*
X0110631Y0209910D01*
X0110663Y0209930D01*
X0110693Y0209954D01*
X0110721Y0209980D01*
X0110747Y0210009D01*
X0110769Y0210039D01*
X0110790Y0210072D01*
X0110807Y0210106D01*
X0110821Y0210142D01*
X0110412Y0209850D02*
X0110374Y0209852D01*
X0110336Y0209857D01*
X0110299Y0209865D01*
X0110262Y0209877D01*
X0110227Y0209892D01*
X0110193Y0209910D01*
X0110161Y0209930D01*
X0110131Y0209954D01*
X0110103Y0209980D01*
X0110077Y0210009D01*
X0110055Y0210039D01*
X0110034Y0210072D01*
X0110017Y0210106D01*
X0110003Y0210142D01*
X0110821Y0210141D02*
X0110854Y0210213D01*
X0110883Y0210286D01*
X0110909Y0210360D01*
X0110932Y0210435D01*
X0110952Y0210511D01*
X0110968Y0210588D01*
X0110980Y0210665D01*
X0110989Y0210743D01*
X0110994Y0210822D01*
X0110996Y0210900D01*
X0109828Y0210900D02*
X0109830Y0210978D01*
X0109835Y0211057D01*
X0109844Y0211135D01*
X0109856Y0211212D01*
X0109872Y0211289D01*
X0109892Y0211365D01*
X0109915Y0211440D01*
X0109941Y0211514D01*
X0109970Y0211587D01*
X0110003Y0211659D01*
X0110412Y0211950D02*
X0110450Y0211948D01*
X0110488Y0211943D01*
X0110525Y0211935D01*
X0110562Y0211923D01*
X0110597Y0211908D01*
X0110631Y0211890D01*
X0110663Y0211870D01*
X0110693Y0211846D01*
X0110721Y0211820D01*
X0110747Y0211791D01*
X0110769Y0211761D01*
X0110790Y0211728D01*
X0110807Y0211694D01*
X0110821Y0211658D01*
X0110412Y0211950D02*
X0110374Y0211948D01*
X0110336Y0211943D01*
X0110299Y0211935D01*
X0110262Y0211923D01*
X0110227Y0211908D01*
X0110193Y0211890D01*
X0110161Y0211870D01*
X0110131Y0211846D01*
X0110103Y0211820D01*
X0110077Y0211791D01*
X0110055Y0211761D01*
X0110034Y0211728D01*
X0110017Y0211694D01*
X0110003Y0211658D01*
X0108835Y0211367D02*
X0108835Y0210783D01*
X0108135Y0210783D01*
X0108835Y0210783D02*
X0108833Y0210722D01*
X0108827Y0210661D01*
X0108817Y0210601D01*
X0108803Y0210542D01*
X0108785Y0210483D01*
X0108764Y0210426D01*
X0108739Y0210370D01*
X0108710Y0210317D01*
X0108678Y0210265D01*
X0108642Y0210215D01*
X0108603Y0210168D01*
X0108562Y0210123D01*
X0108517Y0210082D01*
X0108470Y0210043D01*
X0108420Y0210007D01*
X0108369Y0209975D01*
X0108315Y0209946D01*
X0108259Y0209921D01*
X0108202Y0209900D01*
X0108143Y0209882D01*
X0108084Y0209868D01*
X0108024Y0209858D01*
X0107963Y0209852D01*
X0107902Y0209850D01*
X0108135Y0210783D02*
X0108094Y0210785D01*
X0108054Y0210790D01*
X0108014Y0210799D01*
X0107975Y0210811D01*
X0107938Y0210827D01*
X0107901Y0210846D01*
X0107867Y0210867D01*
X0107835Y0210892D01*
X0107805Y0210920D01*
X0107777Y0210950D01*
X0107752Y0210982D01*
X0107731Y0211017D01*
X0107712Y0211053D01*
X0107696Y0211090D01*
X0107684Y0211129D01*
X0107675Y0211169D01*
X0107670Y0211209D01*
X0107668Y0211250D01*
X0107669Y0211250D02*
X0107669Y0211367D01*
X0107671Y0211414D01*
X0107677Y0211461D01*
X0107686Y0211507D01*
X0107699Y0211552D01*
X0107716Y0211596D01*
X0107736Y0211638D01*
X0107759Y0211679D01*
X0107786Y0211717D01*
X0107816Y0211754D01*
X0107848Y0211787D01*
X0107883Y0211819D01*
X0107921Y0211847D01*
X0107961Y0211872D01*
X0108002Y0211894D01*
X0108045Y0211912D01*
X0108090Y0211927D01*
X0108135Y0211938D01*
X0108182Y0211946D01*
X0108229Y0211950D01*
X0108275Y0211950D01*
X0108322Y0211946D01*
X0108369Y0211938D01*
X0108414Y0211927D01*
X0108459Y0211912D01*
X0108502Y0211894D01*
X0108544Y0211872D01*
X0108583Y0211847D01*
X0108621Y0211819D01*
X0108656Y0211787D01*
X0108688Y0211754D01*
X0108718Y0211717D01*
X0108745Y0211679D01*
X0108768Y0211638D01*
X0108788Y0211596D01*
X0108805Y0211552D01*
X0108818Y0211507D01*
X0108827Y0211461D01*
X0108833Y0211414D01*
X0108835Y0211367D01*
X0106209Y0211016D02*
X0106251Y0211018D01*
X0106292Y0211024D01*
X0106333Y0211033D01*
X0106373Y0211046D01*
X0106412Y0211062D01*
X0106449Y0211082D01*
X0106483Y0211105D01*
X0106516Y0211131D01*
X0106547Y0211160D01*
X0106574Y0211192D01*
X0106599Y0211226D01*
X0106620Y0211262D01*
X0106638Y0211299D01*
X0106653Y0211339D01*
X0106664Y0211379D01*
X0106672Y0211420D01*
X0106676Y0211462D01*
X0106676Y0211504D01*
X0106672Y0211546D01*
X0106664Y0211587D01*
X0106653Y0211627D01*
X0106638Y0211667D01*
X0106620Y0211704D01*
X0106599Y0211740D01*
X0106574Y0211774D01*
X0106547Y0211806D01*
X0106516Y0211835D01*
X0106483Y0211861D01*
X0106449Y0211884D01*
X0106412Y0211904D01*
X0106373Y0211920D01*
X0106333Y0211933D01*
X0106292Y0211942D01*
X0106251Y0211948D01*
X0106209Y0211950D01*
X0105509Y0211950D01*
X0105742Y0211017D02*
X0106209Y0211017D01*
X0106092Y0211016D02*
X0106139Y0211014D01*
X0106186Y0211008D01*
X0106232Y0210999D01*
X0106277Y0210986D01*
X0106321Y0210969D01*
X0106363Y0210949D01*
X0106404Y0210926D01*
X0106442Y0210899D01*
X0106479Y0210869D01*
X0106512Y0210837D01*
X0106544Y0210802D01*
X0106572Y0210764D01*
X0106597Y0210725D01*
X0106619Y0210683D01*
X0106637Y0210640D01*
X0106652Y0210595D01*
X0106663Y0210550D01*
X0106671Y0210503D01*
X0106675Y0210456D01*
X0106675Y0210410D01*
X0106671Y0210363D01*
X0106663Y0210316D01*
X0106652Y0210271D01*
X0106637Y0210226D01*
X0106619Y0210183D01*
X0106597Y0210142D01*
X0106572Y0210102D01*
X0106544Y0210064D01*
X0106512Y0210029D01*
X0106479Y0209997D01*
X0106442Y0209967D01*
X0106404Y0209940D01*
X0106363Y0209917D01*
X0106321Y0209897D01*
X0106277Y0209880D01*
X0106232Y0209867D01*
X0106186Y0209858D01*
X0106139Y0209852D01*
X0106092Y0209850D01*
X0105509Y0209850D01*
X0104443Y0209850D02*
X0104443Y0211950D01*
X0103277Y0211950D02*
X0104443Y0209850D01*
X0103277Y0209850D02*
X0103277Y0211950D01*
X0102036Y0211017D02*
X0101045Y0209850D01*
X0102211Y0209850D01*
X0101045Y0211484D02*
X0101062Y0211530D01*
X0101082Y0211576D01*
X0101106Y0211620D01*
X0101133Y0211662D01*
X0101163Y0211701D01*
X0101196Y0211739D01*
X0101232Y0211774D01*
X0101270Y0211806D01*
X0101310Y0211835D01*
X0101352Y0211862D01*
X0101397Y0211885D01*
X0101442Y0211904D01*
X0101489Y0211921D01*
X0101538Y0211933D01*
X0101587Y0211943D01*
X0101636Y0211948D01*
X0101686Y0211950D01*
X0101729Y0211948D01*
X0101772Y0211943D01*
X0101815Y0211934D01*
X0101856Y0211922D01*
X0101897Y0211906D01*
X0101936Y0211887D01*
X0101973Y0211865D01*
X0102008Y0211839D01*
X0102042Y0211811D01*
X0102072Y0211781D01*
X0102100Y0211747D01*
X0102126Y0211712D01*
X0102148Y0211675D01*
X0102167Y0211636D01*
X0102183Y0211595D01*
X0102195Y0211554D01*
X0102204Y0211511D01*
X0102209Y0211468D01*
X0102211Y0211425D01*
X0102209Y0211379D01*
X0102204Y0211334D01*
X0102194Y0211289D01*
X0102182Y0211245D01*
X0102165Y0211203D01*
X0102146Y0211162D01*
X0102123Y0211122D01*
X0102097Y0211085D01*
X0102068Y0211049D01*
X0102036Y0211017D01*
D12*
X0044100Y0085281D02*
X0039100Y0085281D01*
X0039100Y0086600D02*
X0044100Y0086600D01*
X0046600Y0089100D01*
X0046600Y0104100D01*
X0049100Y0106600D01*
X0054100Y0106600D01*
X0056600Y0104100D01*
X0056600Y0089100D01*
X0059100Y0086600D01*
X0064100Y0086600D01*
X0066600Y0089100D01*
X0066600Y0104100D01*
X0064100Y0106600D01*
X0059100Y0106600D01*
X0056600Y0104100D01*
X0046600Y0104100D02*
X0044100Y0106600D01*
X0039100Y0106600D01*
X0036600Y0104100D01*
X0036600Y0089100D01*
X0039100Y0086600D01*
X0046600Y0089100D02*
X0049100Y0086600D01*
X0054100Y0086600D01*
X0056600Y0089100D01*
X0083578Y0086403D02*
X0083578Y0081600D01*
X0130822Y0081600D01*
X0130822Y0086403D01*
X0122948Y0098214D02*
X0091452Y0098214D01*
X0041600Y0132085D02*
X0061115Y0151600D01*
X0041600Y0171115D01*
X0023073Y0152588D01*
X0023073Y0150612D01*
X0041600Y0132085D01*
X0020565Y0151671D02*
X0020567Y0151720D01*
X0020573Y0151768D01*
X0020583Y0151816D01*
X0020597Y0151863D01*
X0020614Y0151909D01*
X0020635Y0151953D01*
X0020660Y0151995D01*
X0020688Y0152035D01*
X0020720Y0152073D01*
X0020754Y0152108D01*
X0020791Y0152140D01*
X0020830Y0152169D01*
X0020872Y0152195D01*
X0020916Y0152217D01*
X0020961Y0152235D01*
X0021008Y0152250D01*
X0021055Y0152261D01*
X0021104Y0152268D01*
X0021153Y0152271D01*
X0021202Y0152270D01*
X0021250Y0152265D01*
X0021299Y0152256D01*
X0021346Y0152243D01*
X0021392Y0152226D01*
X0021436Y0152206D01*
X0021479Y0152182D01*
X0021520Y0152155D01*
X0021558Y0152124D01*
X0021594Y0152091D01*
X0021626Y0152055D01*
X0021656Y0152016D01*
X0021683Y0151975D01*
X0021706Y0151931D01*
X0021725Y0151886D01*
X0021741Y0151840D01*
X0021753Y0151793D01*
X0021761Y0151744D01*
X0021765Y0151695D01*
X0021765Y0151647D01*
X0021761Y0151598D01*
X0021753Y0151549D01*
X0021741Y0151502D01*
X0021725Y0151456D01*
X0021706Y0151411D01*
X0021683Y0151367D01*
X0021656Y0151326D01*
X0021626Y0151287D01*
X0021594Y0151251D01*
X0021558Y0151218D01*
X0021520Y0151187D01*
X0021479Y0151160D01*
X0021436Y0151136D01*
X0021392Y0151116D01*
X0021346Y0151099D01*
X0021299Y0151086D01*
X0021250Y0151077D01*
X0021202Y0151072D01*
X0021153Y0151071D01*
X0021104Y0151074D01*
X0021055Y0151081D01*
X0021008Y0151092D01*
X0020961Y0151107D01*
X0020916Y0151125D01*
X0020872Y0151147D01*
X0020830Y0151173D01*
X0020791Y0151202D01*
X0020754Y0151234D01*
X0020720Y0151269D01*
X0020688Y0151307D01*
X0020660Y0151347D01*
X0020635Y0151389D01*
X0020614Y0151433D01*
X0020597Y0151479D01*
X0020583Y0151526D01*
X0020573Y0151574D01*
X0020567Y0151622D01*
X0020565Y0151671D01*
X0036710Y0211320D02*
X0036710Y0212230D01*
X0036710Y0211320D02*
X0056200Y0211320D01*
X0056200Y0211300D01*
X0056400Y0211300D01*
X0056400Y0212300D01*
X0056600Y0218400D02*
X0056600Y0225100D01*
X0056480Y0230730D02*
X0056480Y0231800D01*
X0056280Y0231800D01*
X0056280Y0231810D01*
X0036720Y0231810D01*
X0036720Y0230920D01*
X0036600Y0225000D02*
X0036600Y0221600D01*
X0046600Y0231600D01*
X0036600Y0221600D02*
X0036600Y0218200D01*
X0101688Y0216844D02*
X0101688Y0219994D01*
X0101688Y0216844D02*
X0104050Y0216844D01*
X0110350Y0216844D02*
X0112712Y0216844D01*
X0112712Y0219994D01*
X0157800Y0221600D02*
X0157800Y0218200D01*
X0157800Y0221600D02*
X0167800Y0231600D01*
X0177480Y0231810D02*
X0157920Y0231810D01*
X0157920Y0230920D01*
X0157800Y0225000D02*
X0157800Y0221600D01*
X0157910Y0212230D02*
X0157910Y0211320D01*
X0177400Y0211320D01*
X0177400Y0211300D01*
X0177600Y0211300D01*
X0177600Y0212300D01*
X0177800Y0218400D02*
X0177800Y0225100D01*
X0177680Y0230730D02*
X0177680Y0231800D01*
X0177480Y0231800D01*
X0177480Y0231810D01*
X0166737Y0104474D02*
X0158863Y0104474D01*
X0158714Y0104461D01*
X0158565Y0104445D01*
X0158417Y0104425D01*
X0158270Y0104401D01*
X0158123Y0104373D01*
X0157977Y0104342D01*
X0157832Y0104306D01*
X0157687Y0104267D01*
X0157544Y0104223D01*
X0157402Y0104176D01*
X0157262Y0104126D01*
X0157123Y0104071D01*
X0156985Y0104013D01*
X0156849Y0103952D01*
X0156714Y0103886D01*
X0156581Y0103818D01*
X0156451Y0103746D01*
X0156322Y0103670D01*
X0156195Y0103591D01*
X0156070Y0103508D01*
X0155947Y0103423D01*
X0155827Y0103334D01*
X0155709Y0103242D01*
X0155594Y0103147D01*
X0155481Y0103049D01*
X0155371Y0102948D01*
X0155264Y0102844D01*
X0155159Y0102737D01*
X0155057Y0102628D01*
X0154958Y0102516D01*
X0154862Y0102401D01*
X0154769Y0102284D01*
X0154679Y0102165D01*
X0154593Y0102043D01*
X0154510Y0101919D01*
X0154429Y0101793D01*
X0154353Y0101664D01*
X0154280Y0101534D01*
X0154210Y0101402D01*
X0154143Y0101268D01*
X0154081Y0101132D01*
X0154022Y0100995D01*
X0153966Y0100856D01*
X0153914Y0100716D01*
X0153866Y0100574D01*
X0153822Y0100432D01*
X0153781Y0100288D01*
X0153745Y0100143D01*
X0153745Y0093056D02*
X0153781Y0092911D01*
X0153822Y0092768D01*
X0153866Y0092625D01*
X0153914Y0092483D01*
X0153966Y0092343D01*
X0154022Y0092204D01*
X0154081Y0092067D01*
X0154143Y0091931D01*
X0154210Y0091797D01*
X0154279Y0091665D01*
X0154353Y0091535D01*
X0154429Y0091406D01*
X0154509Y0091280D01*
X0154593Y0091156D01*
X0154679Y0091034D01*
X0154769Y0090915D01*
X0154862Y0090798D01*
X0154958Y0090683D01*
X0155057Y0090571D01*
X0155159Y0090462D01*
X0155263Y0090355D01*
X0155371Y0090251D01*
X0155481Y0090150D01*
X0155594Y0090052D01*
X0155709Y0089957D01*
X0155827Y0089865D01*
X0155947Y0089776D01*
X0156070Y0089690D01*
X0156195Y0089608D01*
X0156322Y0089529D01*
X0156451Y0089453D01*
X0156581Y0089381D01*
X0156714Y0089312D01*
X0156849Y0089247D01*
X0156985Y0089186D01*
X0157123Y0089128D01*
X0157262Y0089073D01*
X0157403Y0089023D01*
X0157544Y0088976D01*
X0157688Y0088932D01*
X0157832Y0088893D01*
X0157977Y0088857D01*
X0158123Y0088826D01*
X0158270Y0088798D01*
X0158417Y0088774D01*
X0158566Y0088754D01*
X0158714Y0088738D01*
X0158863Y0088725D01*
X0158863Y0088726D02*
X0166737Y0088726D01*
X0166886Y0088739D01*
X0167035Y0088755D01*
X0167183Y0088775D01*
X0167330Y0088799D01*
X0167477Y0088827D01*
X0167623Y0088858D01*
X0167768Y0088894D01*
X0167913Y0088933D01*
X0168056Y0088977D01*
X0168198Y0089024D01*
X0168338Y0089074D01*
X0168477Y0089129D01*
X0168615Y0089187D01*
X0168751Y0089248D01*
X0168886Y0089314D01*
X0169019Y0089382D01*
X0169149Y0089454D01*
X0169278Y0089530D01*
X0169405Y0089609D01*
X0169530Y0089692D01*
X0169653Y0089777D01*
X0169773Y0089866D01*
X0169891Y0089958D01*
X0170006Y0090053D01*
X0170119Y0090151D01*
X0170229Y0090252D01*
X0170336Y0090356D01*
X0170441Y0090463D01*
X0170543Y0090572D01*
X0170642Y0090684D01*
X0170738Y0090799D01*
X0170831Y0090916D01*
X0170921Y0091035D01*
X0171007Y0091157D01*
X0171090Y0091281D01*
X0171171Y0091407D01*
X0171247Y0091536D01*
X0171320Y0091666D01*
X0171390Y0091798D01*
X0171457Y0091932D01*
X0171519Y0092068D01*
X0171578Y0092205D01*
X0171634Y0092344D01*
X0171686Y0092484D01*
X0171734Y0092626D01*
X0171778Y0092768D01*
X0171819Y0092912D01*
X0171855Y0093057D01*
X0171855Y0100144D02*
X0171819Y0100289D01*
X0171778Y0100432D01*
X0171734Y0100575D01*
X0171686Y0100717D01*
X0171634Y0100857D01*
X0171578Y0100996D01*
X0171519Y0101133D01*
X0171457Y0101269D01*
X0171390Y0101403D01*
X0171321Y0101535D01*
X0171247Y0101665D01*
X0171171Y0101794D01*
X0171091Y0101920D01*
X0171007Y0102044D01*
X0170921Y0102166D01*
X0170831Y0102285D01*
X0170738Y0102402D01*
X0170642Y0102517D01*
X0170543Y0102629D01*
X0170441Y0102738D01*
X0170337Y0102845D01*
X0170229Y0102949D01*
X0170119Y0103050D01*
X0170006Y0103148D01*
X0169891Y0103243D01*
X0169773Y0103335D01*
X0169653Y0103424D01*
X0169530Y0103510D01*
X0169405Y0103592D01*
X0169278Y0103671D01*
X0169149Y0103747D01*
X0169019Y0103819D01*
X0168886Y0103888D01*
X0168751Y0103953D01*
X0168615Y0104014D01*
X0168477Y0104072D01*
X0168338Y0104127D01*
X0168197Y0104177D01*
X0168056Y0104224D01*
X0167912Y0104268D01*
X0167768Y0104307D01*
X0167623Y0104343D01*
X0167477Y0104374D01*
X0167330Y0104402D01*
X0167183Y0104426D01*
X0167034Y0104446D01*
X0166886Y0104462D01*
X0166737Y0104475D01*
D13*
X0164861Y0106300D02*
X0163416Y0106300D01*
X0164138Y0106300D02*
X0164138Y0108900D01*
X0163416Y0108322D01*
X0161462Y0108900D02*
X0161515Y0108898D01*
X0161567Y0108892D01*
X0161619Y0108883D01*
X0161670Y0108869D01*
X0161720Y0108852D01*
X0161768Y0108832D01*
X0161815Y0108808D01*
X0161860Y0108780D01*
X0161903Y0108749D01*
X0161944Y0108716D01*
X0161982Y0108679D01*
X0162017Y0108640D01*
X0162049Y0108598D01*
X0162078Y0108554D01*
X0162104Y0108508D01*
X0162126Y0108460D01*
X0162145Y0108411D01*
X0162161Y0108361D01*
X0162172Y0108309D01*
X0162180Y0108257D01*
X0162184Y0108204D01*
X0162184Y0108152D01*
X0162180Y0108099D01*
X0162172Y0108047D01*
X0162161Y0107995D01*
X0162145Y0107945D01*
X0162126Y0107896D01*
X0162104Y0107848D01*
X0162078Y0107802D01*
X0162049Y0107758D01*
X0162017Y0107716D01*
X0161982Y0107677D01*
X0161944Y0107640D01*
X0161903Y0107607D01*
X0161860Y0107576D01*
X0161815Y0107548D01*
X0161768Y0107524D01*
X0161720Y0107504D01*
X0161670Y0107487D01*
X0161619Y0107473D01*
X0161567Y0107464D01*
X0161515Y0107458D01*
X0161462Y0107456D01*
X0160739Y0107456D01*
X0161606Y0107456D02*
X0162184Y0106300D01*
X0160739Y0106300D02*
X0160739Y0108900D01*
X0161462Y0108900D01*
X0161521Y0086900D02*
X0160077Y0086900D01*
X0160799Y0086900D02*
X0160799Y0084300D01*
X0159001Y0085022D02*
X0159001Y0086178D01*
X0158999Y0086231D01*
X0158993Y0086283D01*
X0158984Y0086335D01*
X0158970Y0086386D01*
X0158953Y0086436D01*
X0158933Y0086484D01*
X0158909Y0086531D01*
X0158881Y0086576D01*
X0158850Y0086619D01*
X0158817Y0086660D01*
X0158780Y0086698D01*
X0158741Y0086733D01*
X0158699Y0086765D01*
X0158655Y0086794D01*
X0158609Y0086820D01*
X0158561Y0086842D01*
X0158512Y0086861D01*
X0158462Y0086877D01*
X0158410Y0086888D01*
X0158358Y0086896D01*
X0158305Y0086900D01*
X0158253Y0086900D01*
X0158200Y0086896D01*
X0158148Y0086888D01*
X0158096Y0086877D01*
X0158046Y0086861D01*
X0157997Y0086842D01*
X0157949Y0086820D01*
X0157903Y0086794D01*
X0157859Y0086765D01*
X0157817Y0086733D01*
X0157778Y0086698D01*
X0157741Y0086660D01*
X0157708Y0086619D01*
X0157677Y0086576D01*
X0157649Y0086531D01*
X0157625Y0086484D01*
X0157605Y0086436D01*
X0157588Y0086386D01*
X0157574Y0086335D01*
X0157565Y0086283D01*
X0157559Y0086231D01*
X0157557Y0086178D01*
X0157557Y0085022D01*
X0157559Y0084969D01*
X0157565Y0084917D01*
X0157574Y0084865D01*
X0157588Y0084814D01*
X0157605Y0084764D01*
X0157625Y0084716D01*
X0157649Y0084669D01*
X0157677Y0084624D01*
X0157708Y0084581D01*
X0157741Y0084540D01*
X0157778Y0084502D01*
X0157817Y0084467D01*
X0157859Y0084435D01*
X0157903Y0084406D01*
X0157949Y0084380D01*
X0157997Y0084358D01*
X0158046Y0084339D01*
X0158096Y0084323D01*
X0158148Y0084312D01*
X0158200Y0084304D01*
X0158253Y0084300D01*
X0158305Y0084300D01*
X0158358Y0084304D01*
X0158410Y0084312D01*
X0158462Y0084323D01*
X0158512Y0084339D01*
X0158561Y0084358D01*
X0158609Y0084380D01*
X0158655Y0084406D01*
X0158699Y0084435D01*
X0158741Y0084467D01*
X0158780Y0084502D01*
X0158817Y0084540D01*
X0158850Y0084581D01*
X0158881Y0084624D01*
X0158909Y0084669D01*
X0158933Y0084716D01*
X0158953Y0084764D01*
X0158970Y0084814D01*
X0158984Y0084865D01*
X0158993Y0084917D01*
X0158999Y0084969D01*
X0159001Y0085022D01*
X0156211Y0084300D02*
X0156211Y0086900D01*
X0156211Y0085744D02*
X0154767Y0085744D01*
X0154767Y0086900D02*
X0154767Y0084300D01*
X0152843Y0085456D02*
X0152120Y0085456D01*
X0152843Y0085456D02*
X0152896Y0085458D01*
X0152948Y0085464D01*
X0153000Y0085473D01*
X0153051Y0085487D01*
X0153101Y0085504D01*
X0153149Y0085524D01*
X0153196Y0085548D01*
X0153241Y0085576D01*
X0153284Y0085607D01*
X0153325Y0085640D01*
X0153363Y0085677D01*
X0153398Y0085716D01*
X0153430Y0085758D01*
X0153459Y0085802D01*
X0153485Y0085848D01*
X0153507Y0085896D01*
X0153526Y0085945D01*
X0153542Y0085995D01*
X0153553Y0086047D01*
X0153561Y0086099D01*
X0153565Y0086152D01*
X0153565Y0086204D01*
X0153561Y0086257D01*
X0153553Y0086309D01*
X0153542Y0086361D01*
X0153526Y0086411D01*
X0153507Y0086460D01*
X0153485Y0086508D01*
X0153459Y0086554D01*
X0153430Y0086598D01*
X0153398Y0086640D01*
X0153363Y0086679D01*
X0153325Y0086716D01*
X0153284Y0086749D01*
X0153241Y0086780D01*
X0153196Y0086808D01*
X0153149Y0086832D01*
X0153101Y0086852D01*
X0153051Y0086869D01*
X0153000Y0086883D01*
X0152948Y0086892D01*
X0152896Y0086898D01*
X0152843Y0086900D01*
X0152120Y0086900D01*
X0152120Y0084300D01*
X0162597Y0085022D02*
X0162597Y0086178D01*
X0162599Y0086231D01*
X0162605Y0086283D01*
X0162614Y0086335D01*
X0162628Y0086386D01*
X0162645Y0086436D01*
X0162665Y0086484D01*
X0162689Y0086531D01*
X0162717Y0086576D01*
X0162748Y0086619D01*
X0162781Y0086660D01*
X0162818Y0086698D01*
X0162857Y0086733D01*
X0162899Y0086765D01*
X0162943Y0086794D01*
X0162989Y0086820D01*
X0163037Y0086842D01*
X0163086Y0086861D01*
X0163136Y0086877D01*
X0163188Y0086888D01*
X0163240Y0086896D01*
X0163293Y0086900D01*
X0163345Y0086900D01*
X0163398Y0086896D01*
X0163450Y0086888D01*
X0163502Y0086877D01*
X0163552Y0086861D01*
X0163601Y0086842D01*
X0163649Y0086820D01*
X0163695Y0086794D01*
X0163739Y0086765D01*
X0163781Y0086733D01*
X0163820Y0086698D01*
X0163857Y0086660D01*
X0163890Y0086619D01*
X0163921Y0086576D01*
X0163949Y0086531D01*
X0163973Y0086484D01*
X0163993Y0086436D01*
X0164010Y0086386D01*
X0164024Y0086335D01*
X0164033Y0086283D01*
X0164039Y0086231D01*
X0164041Y0086178D01*
X0164041Y0085022D01*
X0164039Y0084969D01*
X0164033Y0084917D01*
X0164024Y0084865D01*
X0164010Y0084814D01*
X0163993Y0084764D01*
X0163973Y0084716D01*
X0163949Y0084669D01*
X0163921Y0084624D01*
X0163890Y0084581D01*
X0163857Y0084540D01*
X0163820Y0084502D01*
X0163781Y0084467D01*
X0163739Y0084435D01*
X0163695Y0084406D01*
X0163649Y0084380D01*
X0163601Y0084358D01*
X0163552Y0084339D01*
X0163502Y0084323D01*
X0163450Y0084312D01*
X0163398Y0084304D01*
X0163345Y0084300D01*
X0163293Y0084300D01*
X0163240Y0084304D01*
X0163188Y0084312D01*
X0163136Y0084323D01*
X0163086Y0084339D01*
X0163037Y0084358D01*
X0162989Y0084380D01*
X0162943Y0084406D01*
X0162899Y0084435D01*
X0162857Y0084467D01*
X0162818Y0084502D01*
X0162781Y0084540D01*
X0162748Y0084581D01*
X0162717Y0084624D01*
X0162689Y0084669D01*
X0162665Y0084716D01*
X0162645Y0084764D01*
X0162628Y0084814D01*
X0162614Y0084865D01*
X0162605Y0084917D01*
X0162599Y0084969D01*
X0162597Y0085022D01*
X0165287Y0084878D02*
X0165287Y0086322D01*
X0165286Y0086322D02*
X0165288Y0086370D01*
X0165294Y0086417D01*
X0165304Y0086464D01*
X0165317Y0086510D01*
X0165335Y0086554D01*
X0165356Y0086597D01*
X0165380Y0086638D01*
X0165408Y0086677D01*
X0165439Y0086713D01*
X0165473Y0086747D01*
X0165509Y0086778D01*
X0165548Y0086806D01*
X0165589Y0086830D01*
X0165632Y0086851D01*
X0165676Y0086869D01*
X0165722Y0086882D01*
X0165769Y0086892D01*
X0165816Y0086898D01*
X0165864Y0086900D01*
X0166442Y0086900D01*
X0167644Y0086900D02*
X0168800Y0086900D01*
X0167644Y0086900D02*
X0167644Y0084300D01*
X0168800Y0084300D01*
X0169984Y0084300D02*
X0171140Y0084300D01*
X0169984Y0084300D02*
X0169984Y0086900D01*
X0168511Y0085744D02*
X0167644Y0085744D01*
X0166442Y0084300D02*
X0165864Y0084300D01*
X0165819Y0084302D01*
X0165774Y0084307D01*
X0165729Y0084316D01*
X0165685Y0084328D01*
X0165643Y0084344D01*
X0165602Y0084363D01*
X0165562Y0084385D01*
X0165524Y0084410D01*
X0165489Y0084438D01*
X0165455Y0084469D01*
X0165424Y0084503D01*
X0165396Y0084538D01*
X0165371Y0084576D01*
X0165349Y0084616D01*
X0165330Y0084657D01*
X0165314Y0084699D01*
X0165302Y0084743D01*
X0165293Y0084788D01*
X0165288Y0084833D01*
X0165286Y0084878D01*
X0172324Y0084300D02*
X0173480Y0084300D01*
X0172324Y0084300D02*
X0172324Y0086900D01*
X0125531Y0189300D02*
X0125531Y0191900D01*
X0126686Y0191900D01*
X0126686Y0190744D02*
X0125531Y0190744D01*
X0124124Y0191033D02*
X0124124Y0189300D01*
X0123401Y0189300D01*
X0123361Y0189302D01*
X0123321Y0189307D01*
X0123283Y0189317D01*
X0123245Y0189329D01*
X0123208Y0189345D01*
X0123173Y0189365D01*
X0123140Y0189387D01*
X0123109Y0189413D01*
X0123081Y0189441D01*
X0123055Y0189472D01*
X0123033Y0189505D01*
X0123013Y0189540D01*
X0122997Y0189577D01*
X0122985Y0189615D01*
X0122975Y0189653D01*
X0122970Y0189693D01*
X0122968Y0189733D01*
X0122968Y0191033D01*
X0120213Y0190600D02*
X0120215Y0190512D01*
X0120220Y0190423D01*
X0120229Y0190336D01*
X0120242Y0190248D01*
X0120258Y0190161D01*
X0120278Y0190075D01*
X0120302Y0189990D01*
X0120329Y0189906D01*
X0120359Y0189823D01*
X0120393Y0189741D01*
X0120430Y0189661D01*
X0120358Y0189878D02*
X0121514Y0191322D01*
X0121441Y0191539D02*
X0121425Y0191580D01*
X0121406Y0191620D01*
X0121383Y0191658D01*
X0121358Y0191694D01*
X0121329Y0191728D01*
X0121298Y0191759D01*
X0121264Y0191787D01*
X0121228Y0191813D01*
X0121190Y0191836D01*
X0121151Y0191855D01*
X0121109Y0191871D01*
X0121067Y0191884D01*
X0121024Y0191893D01*
X0120980Y0191898D01*
X0120936Y0191900D01*
X0120892Y0191898D01*
X0120848Y0191893D01*
X0120805Y0191884D01*
X0120763Y0191871D01*
X0120721Y0191855D01*
X0120682Y0191836D01*
X0120644Y0191813D01*
X0120608Y0191787D01*
X0120574Y0191759D01*
X0120543Y0191728D01*
X0120515Y0191694D01*
X0120489Y0191658D01*
X0120466Y0191620D01*
X0120447Y0191580D01*
X0120431Y0191539D01*
X0121442Y0191539D02*
X0121479Y0191459D01*
X0121513Y0191377D01*
X0121543Y0191294D01*
X0121570Y0191210D01*
X0121594Y0191125D01*
X0121614Y0191039D01*
X0121630Y0190952D01*
X0121643Y0190864D01*
X0121652Y0190777D01*
X0121657Y0190688D01*
X0121659Y0190600D01*
X0120213Y0190600D02*
X0120215Y0190688D01*
X0120220Y0190777D01*
X0120229Y0190864D01*
X0120242Y0190952D01*
X0120258Y0191039D01*
X0120278Y0191125D01*
X0120302Y0191210D01*
X0120329Y0191294D01*
X0120359Y0191377D01*
X0120393Y0191459D01*
X0120430Y0191539D01*
X0121659Y0190600D02*
X0121657Y0190512D01*
X0121652Y0190423D01*
X0121643Y0190336D01*
X0121630Y0190248D01*
X0121614Y0190161D01*
X0121594Y0190075D01*
X0121570Y0189990D01*
X0121543Y0189906D01*
X0121513Y0189823D01*
X0121479Y0189741D01*
X0121442Y0189661D01*
X0121441Y0189661D02*
X0121425Y0189620D01*
X0121406Y0189580D01*
X0121383Y0189542D01*
X0121358Y0189506D01*
X0121329Y0189472D01*
X0121298Y0189441D01*
X0121264Y0189413D01*
X0121228Y0189387D01*
X0121190Y0189364D01*
X0121151Y0189345D01*
X0121109Y0189329D01*
X0121067Y0189316D01*
X0121024Y0189307D01*
X0120980Y0189302D01*
X0120936Y0189300D01*
X0120892Y0189302D01*
X0120848Y0189307D01*
X0120805Y0189316D01*
X0120763Y0189329D01*
X0120721Y0189345D01*
X0120682Y0189364D01*
X0120644Y0189387D01*
X0120608Y0189413D01*
X0120574Y0189441D01*
X0120543Y0189472D01*
X0120515Y0189506D01*
X0120489Y0189542D01*
X0120466Y0189580D01*
X0120447Y0189620D01*
X0120431Y0189661D01*
X0118958Y0189300D02*
X0117514Y0189300D01*
X0118236Y0189300D02*
X0118236Y0191900D01*
X0117514Y0191322D01*
X0120825Y0200800D02*
X0121403Y0200800D01*
X0120825Y0200800D02*
X0120780Y0200802D01*
X0120735Y0200807D01*
X0120690Y0200816D01*
X0120646Y0200828D01*
X0120604Y0200844D01*
X0120563Y0200863D01*
X0120523Y0200885D01*
X0120485Y0200910D01*
X0120450Y0200938D01*
X0120416Y0200969D01*
X0120385Y0201003D01*
X0120357Y0201038D01*
X0120332Y0201076D01*
X0120310Y0201116D01*
X0120291Y0201157D01*
X0120275Y0201199D01*
X0120263Y0201243D01*
X0120254Y0201288D01*
X0120249Y0201333D01*
X0120247Y0201378D01*
X0120248Y0201378D02*
X0120248Y0202822D01*
X0120247Y0202822D02*
X0120249Y0202870D01*
X0120255Y0202917D01*
X0120265Y0202964D01*
X0120278Y0203010D01*
X0120296Y0203054D01*
X0120317Y0203097D01*
X0120341Y0203138D01*
X0120369Y0203177D01*
X0120400Y0203213D01*
X0120434Y0203247D01*
X0120470Y0203278D01*
X0120509Y0203306D01*
X0120550Y0203330D01*
X0120593Y0203351D01*
X0120637Y0203369D01*
X0120683Y0203382D01*
X0120730Y0203392D01*
X0120777Y0203398D01*
X0120825Y0203400D01*
X0121403Y0203400D01*
X0122508Y0202822D02*
X0123230Y0203400D01*
X0123230Y0200800D01*
X0122508Y0200800D02*
X0123952Y0200800D01*
X0122100Y0208300D02*
X0122822Y0210900D01*
X0121378Y0210900D01*
X0121378Y0210611D01*
X0119689Y0209456D02*
X0119689Y0208300D01*
X0120122Y0208878D02*
X0118678Y0208878D01*
X0119256Y0210900D01*
X0125523Y0209600D02*
X0125521Y0209512D01*
X0125516Y0209423D01*
X0125507Y0209336D01*
X0125494Y0209248D01*
X0125478Y0209161D01*
X0125458Y0209075D01*
X0125434Y0208990D01*
X0125407Y0208906D01*
X0125377Y0208823D01*
X0125343Y0208741D01*
X0125306Y0208661D01*
X0125305Y0208661D02*
X0125289Y0208620D01*
X0125270Y0208580D01*
X0125247Y0208542D01*
X0125222Y0208506D01*
X0125193Y0208472D01*
X0125162Y0208441D01*
X0125128Y0208413D01*
X0125092Y0208387D01*
X0125054Y0208364D01*
X0125015Y0208345D01*
X0124973Y0208329D01*
X0124931Y0208316D01*
X0124888Y0208307D01*
X0124844Y0208302D01*
X0124800Y0208300D01*
X0124756Y0208302D01*
X0124712Y0208307D01*
X0124669Y0208316D01*
X0124627Y0208329D01*
X0124585Y0208345D01*
X0124546Y0208364D01*
X0124508Y0208387D01*
X0124472Y0208413D01*
X0124438Y0208441D01*
X0124407Y0208472D01*
X0124379Y0208506D01*
X0124353Y0208542D01*
X0124330Y0208580D01*
X0124311Y0208620D01*
X0124295Y0208661D01*
X0124222Y0208878D02*
X0125378Y0210322D01*
X0125305Y0210539D02*
X0125289Y0210580D01*
X0125270Y0210620D01*
X0125247Y0210658D01*
X0125222Y0210694D01*
X0125193Y0210728D01*
X0125162Y0210759D01*
X0125128Y0210787D01*
X0125092Y0210813D01*
X0125054Y0210836D01*
X0125015Y0210855D01*
X0124973Y0210871D01*
X0124931Y0210884D01*
X0124888Y0210893D01*
X0124844Y0210898D01*
X0124800Y0210900D01*
X0124756Y0210898D01*
X0124712Y0210893D01*
X0124669Y0210884D01*
X0124627Y0210871D01*
X0124585Y0210855D01*
X0124546Y0210836D01*
X0124508Y0210813D01*
X0124472Y0210787D01*
X0124438Y0210759D01*
X0124407Y0210728D01*
X0124379Y0210694D01*
X0124353Y0210658D01*
X0124330Y0210620D01*
X0124311Y0210580D01*
X0124295Y0210539D01*
X0125306Y0210539D02*
X0125343Y0210459D01*
X0125377Y0210377D01*
X0125407Y0210294D01*
X0125434Y0210210D01*
X0125458Y0210125D01*
X0125478Y0210039D01*
X0125494Y0209952D01*
X0125507Y0209864D01*
X0125516Y0209777D01*
X0125521Y0209688D01*
X0125523Y0209600D01*
X0124077Y0209600D02*
X0124079Y0209688D01*
X0124084Y0209777D01*
X0124093Y0209864D01*
X0124106Y0209952D01*
X0124122Y0210039D01*
X0124142Y0210125D01*
X0124166Y0210210D01*
X0124193Y0210294D01*
X0124223Y0210377D01*
X0124257Y0210459D01*
X0124294Y0210539D01*
X0124077Y0209600D02*
X0124079Y0209512D01*
X0124084Y0209423D01*
X0124093Y0209336D01*
X0124106Y0209248D01*
X0124122Y0209161D01*
X0124142Y0209075D01*
X0124166Y0208990D01*
X0124193Y0208906D01*
X0124223Y0208823D01*
X0124257Y0208741D01*
X0124294Y0208661D01*
X0124138Y0227800D02*
X0123416Y0227800D01*
X0124138Y0227800D02*
X0124191Y0227802D01*
X0124243Y0227808D01*
X0124295Y0227817D01*
X0124346Y0227831D01*
X0124396Y0227848D01*
X0124444Y0227868D01*
X0124491Y0227892D01*
X0124536Y0227920D01*
X0124579Y0227951D01*
X0124620Y0227984D01*
X0124658Y0228021D01*
X0124693Y0228060D01*
X0124725Y0228102D01*
X0124754Y0228146D01*
X0124780Y0228192D01*
X0124802Y0228240D01*
X0124821Y0228289D01*
X0124837Y0228339D01*
X0124848Y0228391D01*
X0124856Y0228443D01*
X0124860Y0228496D01*
X0124860Y0228548D01*
X0124856Y0228601D01*
X0124848Y0228653D01*
X0124837Y0228705D01*
X0124821Y0228755D01*
X0124802Y0228804D01*
X0124780Y0228852D01*
X0124754Y0228898D01*
X0124725Y0228942D01*
X0124693Y0228984D01*
X0124658Y0229023D01*
X0124620Y0229060D01*
X0124579Y0229093D01*
X0124536Y0229124D01*
X0124491Y0229152D01*
X0124444Y0229176D01*
X0124396Y0229196D01*
X0124346Y0229213D01*
X0124295Y0229227D01*
X0124243Y0229236D01*
X0124191Y0229242D01*
X0124138Y0229244D01*
X0124283Y0229244D02*
X0123705Y0229244D01*
X0124283Y0229244D02*
X0124330Y0229246D01*
X0124376Y0229251D01*
X0124421Y0229261D01*
X0124466Y0229274D01*
X0124510Y0229290D01*
X0124552Y0229310D01*
X0124592Y0229333D01*
X0124630Y0229360D01*
X0124666Y0229389D01*
X0124700Y0229422D01*
X0124731Y0229456D01*
X0124759Y0229494D01*
X0124784Y0229533D01*
X0124805Y0229574D01*
X0124823Y0229617D01*
X0124838Y0229661D01*
X0124849Y0229706D01*
X0124857Y0229752D01*
X0124861Y0229799D01*
X0124861Y0229845D01*
X0124857Y0229892D01*
X0124849Y0229938D01*
X0124838Y0229983D01*
X0124823Y0230027D01*
X0124805Y0230070D01*
X0124784Y0230111D01*
X0124759Y0230150D01*
X0124731Y0230188D01*
X0124700Y0230222D01*
X0124666Y0230255D01*
X0124630Y0230284D01*
X0124592Y0230311D01*
X0124552Y0230334D01*
X0124510Y0230354D01*
X0124466Y0230370D01*
X0124421Y0230383D01*
X0124376Y0230393D01*
X0124330Y0230398D01*
X0124283Y0230400D01*
X0123416Y0230400D01*
X0121462Y0230400D02*
X0120739Y0230400D01*
X0120739Y0227800D01*
X0120739Y0228956D02*
X0121462Y0228956D01*
X0121606Y0228956D02*
X0122184Y0227800D01*
X0121462Y0228956D02*
X0121515Y0228958D01*
X0121567Y0228964D01*
X0121619Y0228973D01*
X0121670Y0228987D01*
X0121720Y0229004D01*
X0121768Y0229024D01*
X0121815Y0229048D01*
X0121860Y0229076D01*
X0121903Y0229107D01*
X0121944Y0229140D01*
X0121982Y0229177D01*
X0122017Y0229216D01*
X0122049Y0229258D01*
X0122078Y0229302D01*
X0122104Y0229348D01*
X0122126Y0229396D01*
X0122145Y0229445D01*
X0122161Y0229495D01*
X0122172Y0229547D01*
X0122180Y0229599D01*
X0122184Y0229652D01*
X0122184Y0229704D01*
X0122180Y0229757D01*
X0122172Y0229809D01*
X0122161Y0229861D01*
X0122145Y0229911D01*
X0122126Y0229960D01*
X0122104Y0230008D01*
X0122078Y0230054D01*
X0122049Y0230098D01*
X0122017Y0230140D01*
X0121982Y0230179D01*
X0121944Y0230216D01*
X0121903Y0230249D01*
X0121860Y0230280D01*
X0121815Y0230308D01*
X0121768Y0230332D01*
X0121720Y0230352D01*
X0121670Y0230369D01*
X0121619Y0230383D01*
X0121567Y0230392D01*
X0121515Y0230398D01*
X0121462Y0230400D01*
X0109212Y0227800D02*
X0107768Y0227800D01*
X0108490Y0227800D02*
X0108490Y0230400D01*
X0107768Y0229822D01*
X0106632Y0229678D02*
X0106632Y0228522D01*
X0106343Y0228378D02*
X0106921Y0227800D01*
X0106632Y0228522D02*
X0106630Y0228469D01*
X0106624Y0228417D01*
X0106615Y0228365D01*
X0106601Y0228314D01*
X0106584Y0228264D01*
X0106564Y0228216D01*
X0106540Y0228169D01*
X0106512Y0228124D01*
X0106481Y0228081D01*
X0106448Y0228040D01*
X0106411Y0228002D01*
X0106372Y0227967D01*
X0106330Y0227935D01*
X0106286Y0227906D01*
X0106240Y0227880D01*
X0106192Y0227858D01*
X0106143Y0227839D01*
X0106093Y0227823D01*
X0106041Y0227812D01*
X0105989Y0227804D01*
X0105936Y0227800D01*
X0105884Y0227800D01*
X0105831Y0227804D01*
X0105779Y0227812D01*
X0105727Y0227823D01*
X0105677Y0227839D01*
X0105628Y0227858D01*
X0105580Y0227880D01*
X0105534Y0227906D01*
X0105490Y0227935D01*
X0105448Y0227967D01*
X0105409Y0228002D01*
X0105372Y0228040D01*
X0105339Y0228081D01*
X0105308Y0228124D01*
X0105280Y0228169D01*
X0105256Y0228216D01*
X0105236Y0228264D01*
X0105219Y0228314D01*
X0105205Y0228365D01*
X0105196Y0228417D01*
X0105190Y0228469D01*
X0105188Y0228522D01*
X0105188Y0229678D01*
X0105190Y0229731D01*
X0105196Y0229783D01*
X0105205Y0229835D01*
X0105219Y0229886D01*
X0105236Y0229936D01*
X0105256Y0229984D01*
X0105280Y0230031D01*
X0105308Y0230076D01*
X0105339Y0230119D01*
X0105372Y0230160D01*
X0105409Y0230198D01*
X0105448Y0230233D01*
X0105490Y0230265D01*
X0105534Y0230294D01*
X0105580Y0230320D01*
X0105628Y0230342D01*
X0105677Y0230361D01*
X0105727Y0230377D01*
X0105779Y0230388D01*
X0105831Y0230396D01*
X0105884Y0230400D01*
X0105936Y0230400D01*
X0105989Y0230396D01*
X0106041Y0230388D01*
X0106093Y0230377D01*
X0106143Y0230361D01*
X0106192Y0230342D01*
X0106240Y0230320D01*
X0106286Y0230294D01*
X0106330Y0230265D01*
X0106372Y0230233D01*
X0106411Y0230198D01*
X0106448Y0230160D01*
X0106481Y0230119D01*
X0106512Y0230076D01*
X0106540Y0230031D01*
X0106564Y0229984D01*
X0106584Y0229936D01*
X0106601Y0229886D01*
X0106615Y0229835D01*
X0106624Y0229783D01*
X0106630Y0229731D01*
X0106632Y0229678D01*
X0094261Y0227800D02*
X0092816Y0227800D01*
X0094044Y0229244D01*
X0093611Y0230400D02*
X0093556Y0230398D01*
X0093501Y0230393D01*
X0093446Y0230384D01*
X0093393Y0230371D01*
X0093340Y0230355D01*
X0093288Y0230335D01*
X0093238Y0230312D01*
X0093189Y0230286D01*
X0093142Y0230256D01*
X0093098Y0230224D01*
X0093055Y0230188D01*
X0093015Y0230150D01*
X0092978Y0230109D01*
X0092943Y0230066D01*
X0092912Y0230021D01*
X0092883Y0229974D01*
X0092858Y0229925D01*
X0092835Y0229874D01*
X0092817Y0229822D01*
X0094043Y0229245D02*
X0094079Y0229281D01*
X0094112Y0229321D01*
X0094142Y0229362D01*
X0094169Y0229406D01*
X0094193Y0229452D01*
X0094213Y0229499D01*
X0094230Y0229547D01*
X0094243Y0229597D01*
X0094252Y0229648D01*
X0094258Y0229699D01*
X0094260Y0229750D01*
X0094261Y0229750D02*
X0094259Y0229799D01*
X0094254Y0229847D01*
X0094245Y0229895D01*
X0094232Y0229942D01*
X0094216Y0229987D01*
X0094197Y0230032D01*
X0094174Y0230075D01*
X0094148Y0230116D01*
X0094119Y0230155D01*
X0094087Y0230192D01*
X0094053Y0230226D01*
X0094016Y0230258D01*
X0093977Y0230287D01*
X0093936Y0230313D01*
X0093893Y0230336D01*
X0093848Y0230355D01*
X0093803Y0230371D01*
X0093756Y0230384D01*
X0093708Y0230393D01*
X0093660Y0230398D01*
X0093611Y0230400D01*
X0090862Y0230400D02*
X0090139Y0230400D01*
X0090139Y0227800D01*
X0090139Y0228956D02*
X0090862Y0228956D01*
X0091006Y0228956D02*
X0091584Y0227800D01*
X0090862Y0228956D02*
X0090915Y0228958D01*
X0090967Y0228964D01*
X0091019Y0228973D01*
X0091070Y0228987D01*
X0091120Y0229004D01*
X0091168Y0229024D01*
X0091215Y0229048D01*
X0091260Y0229076D01*
X0091303Y0229107D01*
X0091344Y0229140D01*
X0091382Y0229177D01*
X0091417Y0229216D01*
X0091449Y0229258D01*
X0091478Y0229302D01*
X0091504Y0229348D01*
X0091526Y0229396D01*
X0091545Y0229445D01*
X0091561Y0229495D01*
X0091572Y0229547D01*
X0091580Y0229599D01*
X0091584Y0229652D01*
X0091584Y0229704D01*
X0091580Y0229757D01*
X0091572Y0229809D01*
X0091561Y0229861D01*
X0091545Y0229911D01*
X0091526Y0229960D01*
X0091504Y0230008D01*
X0091478Y0230054D01*
X0091449Y0230098D01*
X0091417Y0230140D01*
X0091382Y0230179D01*
X0091344Y0230216D01*
X0091303Y0230249D01*
X0091260Y0230280D01*
X0091215Y0230308D01*
X0091168Y0230332D01*
X0091120Y0230352D01*
X0091070Y0230369D01*
X0091019Y0230383D01*
X0090967Y0230392D01*
X0090915Y0230398D01*
X0090862Y0230400D01*
X0090151Y0210900D02*
X0088706Y0210900D01*
X0088706Y0209744D01*
X0089573Y0209744D01*
X0089573Y0209745D02*
X0089618Y0209743D01*
X0089663Y0209738D01*
X0089708Y0209729D01*
X0089752Y0209717D01*
X0089794Y0209701D01*
X0089835Y0209682D01*
X0089875Y0209660D01*
X0089913Y0209635D01*
X0089948Y0209607D01*
X0089982Y0209576D01*
X0090013Y0209542D01*
X0090041Y0209507D01*
X0090066Y0209469D01*
X0090088Y0209429D01*
X0090107Y0209388D01*
X0090123Y0209346D01*
X0090135Y0209302D01*
X0090144Y0209257D01*
X0090149Y0209212D01*
X0090151Y0209167D01*
X0090151Y0208878D01*
X0090149Y0208830D01*
X0090143Y0208783D01*
X0090133Y0208736D01*
X0090120Y0208690D01*
X0090102Y0208646D01*
X0090081Y0208603D01*
X0090057Y0208562D01*
X0090029Y0208523D01*
X0089998Y0208487D01*
X0089964Y0208453D01*
X0089928Y0208422D01*
X0089889Y0208394D01*
X0089848Y0208370D01*
X0089805Y0208349D01*
X0089761Y0208331D01*
X0089715Y0208318D01*
X0089668Y0208308D01*
X0089621Y0208302D01*
X0089573Y0208300D01*
X0088706Y0208300D01*
X0092634Y0208661D02*
X0092671Y0208741D01*
X0092705Y0208823D01*
X0092735Y0208906D01*
X0092762Y0208990D01*
X0092786Y0209075D01*
X0092806Y0209161D01*
X0092822Y0209248D01*
X0092835Y0209336D01*
X0092844Y0209423D01*
X0092849Y0209512D01*
X0092851Y0209600D01*
X0091406Y0209600D02*
X0091408Y0209688D01*
X0091413Y0209777D01*
X0091422Y0209864D01*
X0091435Y0209952D01*
X0091451Y0210039D01*
X0091471Y0210125D01*
X0091495Y0210210D01*
X0091522Y0210294D01*
X0091552Y0210377D01*
X0091586Y0210459D01*
X0091623Y0210539D01*
X0092128Y0210900D02*
X0092172Y0210898D01*
X0092216Y0210893D01*
X0092259Y0210884D01*
X0092301Y0210871D01*
X0092343Y0210855D01*
X0092382Y0210836D01*
X0092420Y0210813D01*
X0092456Y0210787D01*
X0092490Y0210759D01*
X0092521Y0210728D01*
X0092550Y0210694D01*
X0092575Y0210658D01*
X0092598Y0210620D01*
X0092617Y0210580D01*
X0092633Y0210539D01*
X0092706Y0210322D02*
X0091551Y0208878D01*
X0092128Y0208300D02*
X0092172Y0208302D01*
X0092216Y0208307D01*
X0092259Y0208316D01*
X0092301Y0208329D01*
X0092343Y0208345D01*
X0092382Y0208364D01*
X0092420Y0208387D01*
X0092456Y0208413D01*
X0092490Y0208441D01*
X0092521Y0208472D01*
X0092550Y0208506D01*
X0092575Y0208542D01*
X0092598Y0208580D01*
X0092617Y0208620D01*
X0092633Y0208661D01*
X0092128Y0208300D02*
X0092084Y0208302D01*
X0092040Y0208307D01*
X0091997Y0208316D01*
X0091955Y0208329D01*
X0091913Y0208345D01*
X0091874Y0208364D01*
X0091836Y0208387D01*
X0091800Y0208413D01*
X0091766Y0208441D01*
X0091735Y0208472D01*
X0091707Y0208506D01*
X0091681Y0208542D01*
X0091658Y0208580D01*
X0091639Y0208620D01*
X0091623Y0208661D01*
X0092851Y0209600D02*
X0092849Y0209688D01*
X0092844Y0209777D01*
X0092835Y0209864D01*
X0092822Y0209952D01*
X0092806Y0210039D01*
X0092786Y0210125D01*
X0092762Y0210210D01*
X0092735Y0210294D01*
X0092705Y0210377D01*
X0092671Y0210459D01*
X0092634Y0210539D01*
X0092128Y0210900D02*
X0092084Y0210898D01*
X0092040Y0210893D01*
X0091997Y0210884D01*
X0091955Y0210871D01*
X0091913Y0210855D01*
X0091874Y0210836D01*
X0091836Y0210813D01*
X0091800Y0210787D01*
X0091766Y0210759D01*
X0091735Y0210728D01*
X0091707Y0210694D01*
X0091681Y0210658D01*
X0091658Y0210620D01*
X0091639Y0210580D01*
X0091623Y0210539D01*
X0091406Y0209600D02*
X0091408Y0209512D01*
X0091413Y0209423D01*
X0091422Y0209336D01*
X0091435Y0209248D01*
X0091451Y0209161D01*
X0091471Y0209075D01*
X0091495Y0208990D01*
X0091522Y0208906D01*
X0091552Y0208823D01*
X0091586Y0208741D01*
X0091623Y0208661D01*
X0094249Y0208300D02*
X0094249Y0210900D01*
X0094827Y0209889D02*
X0095694Y0208300D01*
X0094249Y0209311D02*
X0095694Y0210900D01*
X0057330Y0206300D02*
X0055886Y0206300D01*
X0056608Y0206300D02*
X0056608Y0208900D01*
X0055886Y0208322D01*
X0054541Y0208178D02*
X0054541Y0207022D01*
X0054540Y0207022D02*
X0054538Y0206970D01*
X0054533Y0206919D01*
X0054524Y0206869D01*
X0054511Y0206819D01*
X0054494Y0206770D01*
X0054475Y0206722D01*
X0054452Y0206676D01*
X0054425Y0206632D01*
X0054396Y0206589D01*
X0054364Y0206549D01*
X0054329Y0206511D01*
X0054291Y0206476D01*
X0054251Y0206444D01*
X0054208Y0206415D01*
X0054164Y0206388D01*
X0054118Y0206365D01*
X0054070Y0206346D01*
X0054021Y0206329D01*
X0053971Y0206316D01*
X0053921Y0206307D01*
X0053870Y0206302D01*
X0053818Y0206300D01*
X0053096Y0206300D01*
X0053096Y0208900D01*
X0053818Y0208900D01*
X0053870Y0208898D01*
X0053921Y0208893D01*
X0053971Y0208884D01*
X0054021Y0208871D01*
X0054070Y0208854D01*
X0054118Y0208835D01*
X0054164Y0208812D01*
X0054208Y0208785D01*
X0054251Y0208756D01*
X0054291Y0208724D01*
X0054329Y0208689D01*
X0054364Y0208651D01*
X0054396Y0208611D01*
X0054425Y0208568D01*
X0054452Y0208524D01*
X0054475Y0208478D01*
X0054494Y0208430D01*
X0054511Y0208381D01*
X0054524Y0208331D01*
X0054533Y0208281D01*
X0054538Y0208230D01*
X0054540Y0208178D01*
X0050112Y0207383D02*
X0049317Y0207817D01*
X0049606Y0208900D02*
X0049669Y0208898D01*
X0049732Y0208893D01*
X0049795Y0208883D01*
X0049857Y0208870D01*
X0049918Y0208854D01*
X0049978Y0208834D01*
X0050037Y0208810D01*
X0050095Y0208784D01*
X0050150Y0208753D01*
X0050204Y0208720D01*
X0050256Y0208683D01*
X0049317Y0207816D02*
X0049278Y0207842D01*
X0049240Y0207870D01*
X0049205Y0207901D01*
X0049173Y0207935D01*
X0049144Y0207972D01*
X0049117Y0208011D01*
X0049094Y0208051D01*
X0049074Y0208094D01*
X0049058Y0208138D01*
X0049045Y0208183D01*
X0049035Y0208229D01*
X0049030Y0208275D01*
X0049028Y0208322D01*
X0049030Y0208367D01*
X0049035Y0208412D01*
X0049044Y0208457D01*
X0049056Y0208501D01*
X0049072Y0208543D01*
X0049091Y0208584D01*
X0049113Y0208624D01*
X0049138Y0208662D01*
X0049166Y0208697D01*
X0049197Y0208731D01*
X0049231Y0208762D01*
X0049266Y0208790D01*
X0049304Y0208815D01*
X0049344Y0208837D01*
X0049385Y0208856D01*
X0049427Y0208872D01*
X0049471Y0208884D01*
X0049516Y0208893D01*
X0049561Y0208898D01*
X0049606Y0208900D01*
X0048956Y0206661D02*
X0049006Y0206614D01*
X0049058Y0206569D01*
X0049113Y0206528D01*
X0049170Y0206489D01*
X0049230Y0206454D01*
X0049291Y0206422D01*
X0049353Y0206394D01*
X0049418Y0206369D01*
X0049483Y0206348D01*
X0049550Y0206331D01*
X0049617Y0206317D01*
X0049686Y0206308D01*
X0049754Y0206302D01*
X0049823Y0206300D01*
X0049868Y0206302D01*
X0049913Y0206307D01*
X0049958Y0206316D01*
X0050002Y0206328D01*
X0050044Y0206344D01*
X0050085Y0206363D01*
X0050125Y0206385D01*
X0050163Y0206410D01*
X0050198Y0206438D01*
X0050232Y0206469D01*
X0050263Y0206503D01*
X0050291Y0206538D01*
X0050316Y0206576D01*
X0050338Y0206616D01*
X0050357Y0206657D01*
X0050373Y0206699D01*
X0050385Y0206743D01*
X0050394Y0206788D01*
X0050399Y0206833D01*
X0050401Y0206878D01*
X0050399Y0206925D01*
X0050394Y0206971D01*
X0050384Y0207017D01*
X0050371Y0207062D01*
X0050355Y0207106D01*
X0050335Y0207149D01*
X0050312Y0207189D01*
X0050285Y0207228D01*
X0050256Y0207265D01*
X0050224Y0207299D01*
X0050189Y0207330D01*
X0050151Y0207358D01*
X0050112Y0207384D01*
X0047592Y0207383D02*
X0046797Y0207817D01*
X0047086Y0208900D02*
X0047149Y0208898D01*
X0047212Y0208893D01*
X0047275Y0208883D01*
X0047337Y0208870D01*
X0047398Y0208854D01*
X0047458Y0208834D01*
X0047517Y0208810D01*
X0047575Y0208784D01*
X0047630Y0208753D01*
X0047684Y0208720D01*
X0047736Y0208683D01*
X0046797Y0207816D02*
X0046758Y0207842D01*
X0046720Y0207870D01*
X0046685Y0207901D01*
X0046653Y0207935D01*
X0046624Y0207972D01*
X0046597Y0208011D01*
X0046574Y0208051D01*
X0046554Y0208094D01*
X0046538Y0208138D01*
X0046525Y0208183D01*
X0046515Y0208229D01*
X0046510Y0208275D01*
X0046508Y0208322D01*
X0046510Y0208367D01*
X0046515Y0208412D01*
X0046524Y0208457D01*
X0046536Y0208501D01*
X0046552Y0208543D01*
X0046571Y0208584D01*
X0046593Y0208624D01*
X0046618Y0208662D01*
X0046646Y0208697D01*
X0046677Y0208731D01*
X0046711Y0208762D01*
X0046746Y0208790D01*
X0046784Y0208815D01*
X0046824Y0208837D01*
X0046865Y0208856D01*
X0046907Y0208872D01*
X0046951Y0208884D01*
X0046996Y0208893D01*
X0047041Y0208898D01*
X0047086Y0208900D01*
X0046436Y0206661D02*
X0046486Y0206614D01*
X0046538Y0206569D01*
X0046593Y0206528D01*
X0046650Y0206489D01*
X0046710Y0206454D01*
X0046771Y0206422D01*
X0046833Y0206394D01*
X0046898Y0206369D01*
X0046963Y0206348D01*
X0047030Y0206331D01*
X0047097Y0206317D01*
X0047166Y0206308D01*
X0047234Y0206302D01*
X0047303Y0206300D01*
X0047348Y0206302D01*
X0047393Y0206307D01*
X0047438Y0206316D01*
X0047482Y0206328D01*
X0047524Y0206344D01*
X0047565Y0206363D01*
X0047605Y0206385D01*
X0047643Y0206410D01*
X0047678Y0206438D01*
X0047712Y0206469D01*
X0047743Y0206503D01*
X0047771Y0206538D01*
X0047796Y0206576D01*
X0047818Y0206616D01*
X0047837Y0206657D01*
X0047853Y0206699D01*
X0047865Y0206743D01*
X0047874Y0206788D01*
X0047879Y0206833D01*
X0047881Y0206878D01*
X0047879Y0206925D01*
X0047874Y0206971D01*
X0047864Y0207017D01*
X0047851Y0207062D01*
X0047835Y0207106D01*
X0047815Y0207149D01*
X0047792Y0207189D01*
X0047765Y0207228D01*
X0047736Y0207265D01*
X0047704Y0207299D01*
X0047669Y0207330D01*
X0047631Y0207358D01*
X0047592Y0207384D01*
X0045415Y0206300D02*
X0044548Y0208900D01*
X0043682Y0206300D01*
X0043898Y0206950D02*
X0045198Y0206950D01*
X0041992Y0207456D02*
X0041269Y0207456D01*
X0041992Y0207456D02*
X0042045Y0207458D01*
X0042097Y0207464D01*
X0042149Y0207473D01*
X0042200Y0207487D01*
X0042250Y0207504D01*
X0042298Y0207524D01*
X0042345Y0207548D01*
X0042390Y0207576D01*
X0042433Y0207607D01*
X0042474Y0207640D01*
X0042512Y0207677D01*
X0042547Y0207716D01*
X0042579Y0207758D01*
X0042608Y0207802D01*
X0042634Y0207848D01*
X0042656Y0207896D01*
X0042675Y0207945D01*
X0042691Y0207995D01*
X0042702Y0208047D01*
X0042710Y0208099D01*
X0042714Y0208152D01*
X0042714Y0208204D01*
X0042710Y0208257D01*
X0042702Y0208309D01*
X0042691Y0208361D01*
X0042675Y0208411D01*
X0042656Y0208460D01*
X0042634Y0208508D01*
X0042608Y0208554D01*
X0042579Y0208598D01*
X0042547Y0208640D01*
X0042512Y0208679D01*
X0042474Y0208716D01*
X0042433Y0208749D01*
X0042390Y0208780D01*
X0042345Y0208808D01*
X0042298Y0208832D01*
X0042250Y0208852D01*
X0042200Y0208869D01*
X0042149Y0208883D01*
X0042097Y0208892D01*
X0042045Y0208898D01*
X0041992Y0208900D01*
X0041269Y0208900D01*
X0041269Y0206300D01*
X0039148Y0206300D02*
X0039148Y0207672D01*
X0040015Y0208900D01*
X0039148Y0207672D02*
X0038282Y0208900D01*
X0036592Y0208900D02*
X0035869Y0208900D01*
X0035869Y0206300D01*
X0036592Y0206300D01*
X0036645Y0206302D01*
X0036697Y0206308D01*
X0036749Y0206317D01*
X0036800Y0206331D01*
X0036850Y0206348D01*
X0036898Y0206368D01*
X0036945Y0206392D01*
X0036990Y0206420D01*
X0037033Y0206451D01*
X0037074Y0206484D01*
X0037112Y0206521D01*
X0037147Y0206560D01*
X0037179Y0206602D01*
X0037208Y0206646D01*
X0037234Y0206692D01*
X0037256Y0206740D01*
X0037275Y0206789D01*
X0037291Y0206839D01*
X0037302Y0206891D01*
X0037310Y0206943D01*
X0037314Y0206996D01*
X0037314Y0207048D01*
X0037310Y0207101D01*
X0037302Y0207153D01*
X0037291Y0207205D01*
X0037275Y0207255D01*
X0037256Y0207304D01*
X0037234Y0207352D01*
X0037208Y0207398D01*
X0037179Y0207442D01*
X0037147Y0207484D01*
X0037112Y0207523D01*
X0037074Y0207560D01*
X0037033Y0207593D01*
X0036990Y0207624D01*
X0036945Y0207652D01*
X0036898Y0207676D01*
X0036850Y0207696D01*
X0036800Y0207713D01*
X0036749Y0207727D01*
X0036697Y0207736D01*
X0036645Y0207742D01*
X0036592Y0207744D01*
X0035869Y0207744D01*
X0036592Y0207744D02*
X0036639Y0207746D01*
X0036685Y0207751D01*
X0036730Y0207761D01*
X0036775Y0207774D01*
X0036819Y0207790D01*
X0036861Y0207810D01*
X0036901Y0207833D01*
X0036939Y0207860D01*
X0036975Y0207889D01*
X0037009Y0207922D01*
X0037040Y0207956D01*
X0037068Y0207994D01*
X0037093Y0208033D01*
X0037114Y0208074D01*
X0037132Y0208117D01*
X0037147Y0208161D01*
X0037158Y0208206D01*
X0037166Y0208252D01*
X0037170Y0208299D01*
X0037170Y0208345D01*
X0037166Y0208392D01*
X0037158Y0208438D01*
X0037147Y0208483D01*
X0037132Y0208527D01*
X0037114Y0208570D01*
X0037093Y0208611D01*
X0037068Y0208650D01*
X0037040Y0208688D01*
X0037009Y0208722D01*
X0036975Y0208755D01*
X0036939Y0208784D01*
X0036901Y0208811D01*
X0036861Y0208834D01*
X0036819Y0208854D01*
X0036775Y0208870D01*
X0036730Y0208883D01*
X0036685Y0208893D01*
X0036639Y0208898D01*
X0036592Y0208900D01*
X0044483Y0232800D02*
X0045205Y0232800D01*
X0044483Y0232800D02*
X0044483Y0235400D01*
X0045205Y0235400D01*
X0045257Y0235398D01*
X0045308Y0235393D01*
X0045358Y0235384D01*
X0045408Y0235371D01*
X0045457Y0235354D01*
X0045505Y0235335D01*
X0045551Y0235312D01*
X0045595Y0235285D01*
X0045638Y0235256D01*
X0045678Y0235224D01*
X0045716Y0235189D01*
X0045751Y0235151D01*
X0045783Y0235111D01*
X0045812Y0235068D01*
X0045839Y0235024D01*
X0045862Y0234978D01*
X0045881Y0234930D01*
X0045898Y0234881D01*
X0045911Y0234831D01*
X0045920Y0234781D01*
X0045925Y0234730D01*
X0045927Y0234678D01*
X0045927Y0233522D01*
X0045925Y0233470D01*
X0045920Y0233419D01*
X0045911Y0233369D01*
X0045898Y0233319D01*
X0045881Y0233270D01*
X0045862Y0233222D01*
X0045839Y0233176D01*
X0045812Y0233132D01*
X0045783Y0233089D01*
X0045751Y0233049D01*
X0045716Y0233011D01*
X0045678Y0232976D01*
X0045638Y0232944D01*
X0045595Y0232915D01*
X0045551Y0232888D01*
X0045505Y0232865D01*
X0045457Y0232846D01*
X0045408Y0232829D01*
X0045358Y0232816D01*
X0045308Y0232807D01*
X0045257Y0232802D01*
X0045205Y0232800D01*
X0047273Y0232800D02*
X0048717Y0232800D01*
X0047995Y0232800D02*
X0047995Y0235400D01*
X0047273Y0234822D01*
X0042905Y0178310D02*
X0042905Y0175710D01*
X0042183Y0175710D02*
X0043627Y0175710D01*
X0042183Y0177732D02*
X0042905Y0178310D01*
X0040837Y0178310D02*
X0040837Y0176432D01*
X0040835Y0176379D01*
X0040829Y0176327D01*
X0040820Y0176275D01*
X0040806Y0176224D01*
X0040789Y0176174D01*
X0040769Y0176126D01*
X0040745Y0176079D01*
X0040717Y0176034D01*
X0040686Y0175991D01*
X0040653Y0175950D01*
X0040616Y0175912D01*
X0040577Y0175877D01*
X0040535Y0175845D01*
X0040491Y0175816D01*
X0040445Y0175790D01*
X0040397Y0175768D01*
X0040348Y0175749D01*
X0040298Y0175733D01*
X0040246Y0175722D01*
X0040194Y0175714D01*
X0040141Y0175710D01*
X0040089Y0175710D01*
X0040036Y0175714D01*
X0039984Y0175722D01*
X0039932Y0175733D01*
X0039882Y0175749D01*
X0039833Y0175768D01*
X0039785Y0175790D01*
X0039739Y0175816D01*
X0039695Y0175845D01*
X0039653Y0175877D01*
X0039614Y0175912D01*
X0039577Y0175950D01*
X0039544Y0175991D01*
X0039513Y0176034D01*
X0039485Y0176079D01*
X0039461Y0176126D01*
X0039441Y0176174D01*
X0039424Y0176224D01*
X0039410Y0176275D01*
X0039401Y0176327D01*
X0039395Y0176379D01*
X0039393Y0176432D01*
X0039393Y0178310D01*
X0038849Y0126078D02*
X0040005Y0126078D01*
X0038849Y0126078D02*
X0038849Y0123478D01*
X0040005Y0123478D01*
X0041182Y0124055D02*
X0041182Y0125500D01*
X0041184Y0125548D01*
X0041190Y0125595D01*
X0041200Y0125642D01*
X0041213Y0125688D01*
X0041231Y0125732D01*
X0041252Y0125775D01*
X0041276Y0125816D01*
X0041304Y0125855D01*
X0041335Y0125891D01*
X0041369Y0125925D01*
X0041405Y0125956D01*
X0041444Y0125984D01*
X0041485Y0126008D01*
X0041528Y0126029D01*
X0041572Y0126047D01*
X0041618Y0126060D01*
X0041665Y0126070D01*
X0041712Y0126076D01*
X0041760Y0126078D01*
X0042627Y0126078D01*
X0042627Y0124922D02*
X0042627Y0123478D01*
X0041760Y0123478D01*
X0041760Y0123477D02*
X0041715Y0123479D01*
X0041670Y0123484D01*
X0041625Y0123493D01*
X0041581Y0123505D01*
X0041539Y0123521D01*
X0041498Y0123540D01*
X0041458Y0123562D01*
X0041420Y0123587D01*
X0041385Y0123615D01*
X0041351Y0123646D01*
X0041320Y0123680D01*
X0041292Y0123715D01*
X0041267Y0123753D01*
X0041245Y0123793D01*
X0041226Y0123834D01*
X0041210Y0123876D01*
X0041198Y0123920D01*
X0041189Y0123965D01*
X0041184Y0124010D01*
X0041182Y0124055D01*
X0042193Y0124922D02*
X0042627Y0124922D01*
X0044045Y0124128D02*
X0045345Y0124128D01*
X0045561Y0123478D02*
X0044695Y0126078D01*
X0043828Y0123478D01*
X0046672Y0123478D02*
X0047395Y0123478D01*
X0047448Y0123480D01*
X0047500Y0123486D01*
X0047552Y0123495D01*
X0047603Y0123509D01*
X0047653Y0123526D01*
X0047701Y0123546D01*
X0047748Y0123570D01*
X0047793Y0123598D01*
X0047836Y0123629D01*
X0047877Y0123662D01*
X0047915Y0123699D01*
X0047950Y0123738D01*
X0047982Y0123780D01*
X0048011Y0123824D01*
X0048037Y0123870D01*
X0048059Y0123918D01*
X0048078Y0123967D01*
X0048094Y0124017D01*
X0048105Y0124069D01*
X0048113Y0124121D01*
X0048117Y0124174D01*
X0048117Y0124226D01*
X0048113Y0124279D01*
X0048105Y0124331D01*
X0048094Y0124383D01*
X0048078Y0124433D01*
X0048059Y0124482D01*
X0048037Y0124530D01*
X0048011Y0124576D01*
X0047982Y0124620D01*
X0047950Y0124662D01*
X0047915Y0124701D01*
X0047877Y0124738D01*
X0047836Y0124771D01*
X0047793Y0124802D01*
X0047748Y0124830D01*
X0047701Y0124854D01*
X0047653Y0124874D01*
X0047603Y0124891D01*
X0047552Y0124905D01*
X0047500Y0124914D01*
X0047448Y0124920D01*
X0047395Y0124922D01*
X0047539Y0124922D02*
X0046961Y0124922D01*
X0047539Y0124922D02*
X0047586Y0124924D01*
X0047632Y0124929D01*
X0047677Y0124939D01*
X0047722Y0124952D01*
X0047766Y0124968D01*
X0047808Y0124988D01*
X0047848Y0125011D01*
X0047886Y0125038D01*
X0047922Y0125067D01*
X0047956Y0125100D01*
X0047987Y0125134D01*
X0048015Y0125172D01*
X0048040Y0125211D01*
X0048061Y0125252D01*
X0048079Y0125295D01*
X0048094Y0125339D01*
X0048105Y0125384D01*
X0048113Y0125430D01*
X0048117Y0125477D01*
X0048117Y0125523D01*
X0048113Y0125570D01*
X0048105Y0125616D01*
X0048094Y0125661D01*
X0048079Y0125705D01*
X0048061Y0125748D01*
X0048040Y0125789D01*
X0048015Y0125828D01*
X0047987Y0125866D01*
X0047956Y0125900D01*
X0047922Y0125933D01*
X0047886Y0125962D01*
X0047848Y0125989D01*
X0047808Y0126012D01*
X0047766Y0126032D01*
X0047722Y0126048D01*
X0047677Y0126061D01*
X0047632Y0126071D01*
X0047586Y0126076D01*
X0047539Y0126078D01*
X0046672Y0126078D01*
X0050600Y0124923D02*
X0050636Y0124959D01*
X0050669Y0124999D01*
X0050699Y0125040D01*
X0050726Y0125084D01*
X0050750Y0125130D01*
X0050770Y0125177D01*
X0050787Y0125225D01*
X0050800Y0125275D01*
X0050809Y0125326D01*
X0050815Y0125377D01*
X0050817Y0125428D01*
X0050600Y0124922D02*
X0049372Y0123478D01*
X0050817Y0123478D01*
X0049373Y0125500D02*
X0049391Y0125552D01*
X0049414Y0125603D01*
X0049439Y0125652D01*
X0049468Y0125699D01*
X0049499Y0125744D01*
X0049534Y0125787D01*
X0049571Y0125828D01*
X0049611Y0125866D01*
X0049654Y0125902D01*
X0049698Y0125934D01*
X0049745Y0125964D01*
X0049794Y0125990D01*
X0049844Y0126013D01*
X0049896Y0126033D01*
X0049949Y0126049D01*
X0050002Y0126062D01*
X0050057Y0126071D01*
X0050112Y0126076D01*
X0050167Y0126078D01*
X0050216Y0126076D01*
X0050264Y0126071D01*
X0050312Y0126062D01*
X0050359Y0126049D01*
X0050404Y0126033D01*
X0050449Y0126014D01*
X0050492Y0125991D01*
X0050533Y0125965D01*
X0050572Y0125936D01*
X0050609Y0125904D01*
X0050643Y0125870D01*
X0050675Y0125833D01*
X0050704Y0125794D01*
X0050730Y0125753D01*
X0050753Y0125710D01*
X0050772Y0125665D01*
X0050788Y0125620D01*
X0050801Y0125573D01*
X0050810Y0125525D01*
X0050815Y0125477D01*
X0050817Y0125428D01*
X0052217Y0125500D02*
X0052219Y0125453D01*
X0052224Y0125407D01*
X0052234Y0125362D01*
X0052247Y0125317D01*
X0052263Y0125273D01*
X0052283Y0125231D01*
X0052306Y0125191D01*
X0052333Y0125153D01*
X0052362Y0125117D01*
X0052395Y0125083D01*
X0052429Y0125052D01*
X0052467Y0125024D01*
X0052506Y0124999D01*
X0052547Y0124978D01*
X0052590Y0124960D01*
X0052634Y0124945D01*
X0052679Y0124934D01*
X0052725Y0124926D01*
X0052772Y0124922D01*
X0052818Y0124922D01*
X0052865Y0124926D01*
X0052911Y0124934D01*
X0052956Y0124945D01*
X0053000Y0124960D01*
X0053043Y0124978D01*
X0053084Y0124999D01*
X0053123Y0125024D01*
X0053161Y0125052D01*
X0053195Y0125083D01*
X0053228Y0125117D01*
X0053257Y0125153D01*
X0053284Y0125191D01*
X0053307Y0125231D01*
X0053327Y0125273D01*
X0053343Y0125317D01*
X0053356Y0125362D01*
X0053366Y0125407D01*
X0053371Y0125453D01*
X0053373Y0125500D01*
X0053371Y0125547D01*
X0053366Y0125593D01*
X0053356Y0125638D01*
X0053343Y0125683D01*
X0053327Y0125727D01*
X0053307Y0125769D01*
X0053284Y0125809D01*
X0053257Y0125847D01*
X0053228Y0125883D01*
X0053195Y0125917D01*
X0053161Y0125948D01*
X0053123Y0125976D01*
X0053084Y0126001D01*
X0053043Y0126022D01*
X0053000Y0126040D01*
X0052956Y0126055D01*
X0052911Y0126066D01*
X0052865Y0126074D01*
X0052818Y0126078D01*
X0052772Y0126078D01*
X0052725Y0126074D01*
X0052679Y0126066D01*
X0052634Y0126055D01*
X0052590Y0126040D01*
X0052547Y0126022D01*
X0052506Y0126001D01*
X0052467Y0125976D01*
X0052429Y0125948D01*
X0052395Y0125917D01*
X0052362Y0125883D01*
X0052333Y0125847D01*
X0052306Y0125809D01*
X0052283Y0125769D01*
X0052263Y0125727D01*
X0052247Y0125683D01*
X0052234Y0125638D01*
X0052224Y0125593D01*
X0052219Y0125547D01*
X0052217Y0125500D01*
X0052073Y0124200D02*
X0052075Y0124147D01*
X0052081Y0124095D01*
X0052090Y0124043D01*
X0052104Y0123992D01*
X0052121Y0123942D01*
X0052141Y0123894D01*
X0052165Y0123847D01*
X0052193Y0123802D01*
X0052224Y0123759D01*
X0052257Y0123718D01*
X0052294Y0123680D01*
X0052333Y0123645D01*
X0052375Y0123613D01*
X0052419Y0123584D01*
X0052465Y0123558D01*
X0052513Y0123536D01*
X0052562Y0123517D01*
X0052612Y0123501D01*
X0052664Y0123490D01*
X0052716Y0123482D01*
X0052769Y0123478D01*
X0052821Y0123478D01*
X0052874Y0123482D01*
X0052926Y0123490D01*
X0052978Y0123501D01*
X0053028Y0123517D01*
X0053077Y0123536D01*
X0053125Y0123558D01*
X0053171Y0123584D01*
X0053215Y0123613D01*
X0053257Y0123645D01*
X0053296Y0123680D01*
X0053333Y0123718D01*
X0053366Y0123759D01*
X0053397Y0123802D01*
X0053425Y0123847D01*
X0053449Y0123894D01*
X0053469Y0123942D01*
X0053486Y0123992D01*
X0053500Y0124043D01*
X0053509Y0124095D01*
X0053515Y0124147D01*
X0053517Y0124200D01*
X0053515Y0124253D01*
X0053509Y0124305D01*
X0053500Y0124357D01*
X0053486Y0124408D01*
X0053469Y0124458D01*
X0053449Y0124506D01*
X0053425Y0124553D01*
X0053397Y0124598D01*
X0053366Y0124641D01*
X0053333Y0124682D01*
X0053296Y0124720D01*
X0053257Y0124755D01*
X0053215Y0124787D01*
X0053171Y0124816D01*
X0053125Y0124842D01*
X0053077Y0124864D01*
X0053028Y0124883D01*
X0052978Y0124899D01*
X0052926Y0124910D01*
X0052874Y0124918D01*
X0052821Y0124922D01*
X0052769Y0124922D01*
X0052716Y0124918D01*
X0052664Y0124910D01*
X0052612Y0124899D01*
X0052562Y0124883D01*
X0052513Y0124864D01*
X0052465Y0124842D01*
X0052419Y0124816D01*
X0052375Y0124787D01*
X0052333Y0124755D01*
X0052294Y0124720D01*
X0052257Y0124682D01*
X0052224Y0124641D01*
X0052193Y0124598D01*
X0052165Y0124553D01*
X0052141Y0124506D01*
X0052121Y0124458D01*
X0052104Y0124408D01*
X0052090Y0124357D01*
X0052081Y0124305D01*
X0052075Y0124253D01*
X0052073Y0124200D01*
X0039716Y0124922D02*
X0038849Y0124922D01*
X0037371Y0126078D02*
X0037371Y0123478D01*
X0036505Y0124633D02*
X0037371Y0126078D01*
X0036505Y0124633D02*
X0035638Y0126078D01*
X0035638Y0123478D01*
X0033715Y0123478D02*
X0033715Y0126078D01*
X0034437Y0126078D02*
X0032992Y0126078D01*
X0031195Y0126078D02*
X0032061Y0123478D01*
X0031845Y0124128D02*
X0030545Y0124128D01*
X0030328Y0123478D02*
X0031195Y0126078D01*
X0037800Y0111400D02*
X0038378Y0111400D01*
X0038089Y0111400D02*
X0038089Y0108800D01*
X0037800Y0108800D02*
X0038378Y0108800D01*
X0039516Y0109378D02*
X0039516Y0110822D01*
X0039518Y0110870D01*
X0039524Y0110917D01*
X0039534Y0110964D01*
X0039547Y0111010D01*
X0039565Y0111054D01*
X0039586Y0111097D01*
X0039610Y0111138D01*
X0039638Y0111177D01*
X0039669Y0111213D01*
X0039703Y0111247D01*
X0039739Y0111278D01*
X0039778Y0111306D01*
X0039819Y0111330D01*
X0039862Y0111351D01*
X0039906Y0111369D01*
X0039952Y0111382D01*
X0039999Y0111392D01*
X0040046Y0111398D01*
X0040094Y0111400D01*
X0040672Y0111400D01*
X0042048Y0110317D02*
X0042842Y0109883D01*
X0042553Y0108800D02*
X0042484Y0108802D01*
X0042416Y0108808D01*
X0042347Y0108817D01*
X0042280Y0108831D01*
X0042213Y0108848D01*
X0042148Y0108869D01*
X0042083Y0108894D01*
X0042021Y0108922D01*
X0041960Y0108954D01*
X0041900Y0108989D01*
X0041843Y0109028D01*
X0041788Y0109069D01*
X0041736Y0109114D01*
X0041686Y0109161D01*
X0042842Y0109884D02*
X0042881Y0109858D01*
X0042919Y0109830D01*
X0042954Y0109799D01*
X0042986Y0109765D01*
X0043015Y0109728D01*
X0043042Y0109689D01*
X0043065Y0109649D01*
X0043085Y0109606D01*
X0043101Y0109562D01*
X0043114Y0109517D01*
X0043124Y0109471D01*
X0043129Y0109425D01*
X0043131Y0109378D01*
X0043129Y0109333D01*
X0043124Y0109288D01*
X0043115Y0109243D01*
X0043103Y0109199D01*
X0043087Y0109157D01*
X0043068Y0109116D01*
X0043046Y0109076D01*
X0043021Y0109038D01*
X0042993Y0109003D01*
X0042962Y0108969D01*
X0042928Y0108938D01*
X0042893Y0108910D01*
X0042855Y0108885D01*
X0042815Y0108863D01*
X0042774Y0108844D01*
X0042732Y0108828D01*
X0042688Y0108816D01*
X0042643Y0108807D01*
X0042598Y0108802D01*
X0042553Y0108800D01*
X0042987Y0111183D02*
X0042935Y0111220D01*
X0042881Y0111253D01*
X0042826Y0111284D01*
X0042768Y0111310D01*
X0042709Y0111334D01*
X0042649Y0111354D01*
X0042588Y0111370D01*
X0042526Y0111383D01*
X0042463Y0111393D01*
X0042400Y0111398D01*
X0042337Y0111400D01*
X0042292Y0111398D01*
X0042247Y0111393D01*
X0042202Y0111384D01*
X0042158Y0111372D01*
X0042116Y0111356D01*
X0042075Y0111337D01*
X0042035Y0111315D01*
X0041997Y0111290D01*
X0041962Y0111262D01*
X0041928Y0111231D01*
X0041897Y0111197D01*
X0041869Y0111162D01*
X0041844Y0111124D01*
X0041822Y0111084D01*
X0041803Y0111043D01*
X0041787Y0111001D01*
X0041775Y0110957D01*
X0041766Y0110912D01*
X0041761Y0110867D01*
X0041759Y0110822D01*
X0041761Y0110775D01*
X0041766Y0110729D01*
X0041776Y0110683D01*
X0041789Y0110638D01*
X0041805Y0110594D01*
X0041825Y0110551D01*
X0041848Y0110511D01*
X0041875Y0110472D01*
X0041904Y0110435D01*
X0041936Y0110401D01*
X0041971Y0110370D01*
X0042009Y0110342D01*
X0042048Y0110316D01*
X0040672Y0108800D02*
X0040094Y0108800D01*
X0040049Y0108802D01*
X0040004Y0108807D01*
X0039959Y0108816D01*
X0039915Y0108828D01*
X0039873Y0108844D01*
X0039832Y0108863D01*
X0039792Y0108885D01*
X0039754Y0108910D01*
X0039719Y0108938D01*
X0039685Y0108969D01*
X0039654Y0109003D01*
X0039626Y0109038D01*
X0039601Y0109076D01*
X0039579Y0109116D01*
X0039560Y0109157D01*
X0039544Y0109199D01*
X0039532Y0109243D01*
X0039523Y0109288D01*
X0039518Y0109333D01*
X0039516Y0109378D01*
X0044440Y0109956D02*
X0045162Y0109956D01*
X0045215Y0109958D01*
X0045267Y0109964D01*
X0045319Y0109973D01*
X0045370Y0109987D01*
X0045420Y0110004D01*
X0045468Y0110024D01*
X0045515Y0110048D01*
X0045560Y0110076D01*
X0045603Y0110107D01*
X0045644Y0110140D01*
X0045682Y0110177D01*
X0045717Y0110216D01*
X0045749Y0110258D01*
X0045778Y0110302D01*
X0045804Y0110348D01*
X0045826Y0110396D01*
X0045845Y0110445D01*
X0045861Y0110495D01*
X0045872Y0110547D01*
X0045880Y0110599D01*
X0045884Y0110652D01*
X0045884Y0110704D01*
X0045880Y0110757D01*
X0045872Y0110809D01*
X0045861Y0110861D01*
X0045845Y0110911D01*
X0045826Y0110960D01*
X0045804Y0111008D01*
X0045778Y0111054D01*
X0045749Y0111098D01*
X0045717Y0111140D01*
X0045682Y0111179D01*
X0045644Y0111216D01*
X0045603Y0111249D01*
X0045560Y0111280D01*
X0045515Y0111308D01*
X0045468Y0111332D01*
X0045420Y0111352D01*
X0045370Y0111369D01*
X0045319Y0111383D01*
X0045267Y0111392D01*
X0045215Y0111398D01*
X0045162Y0111400D01*
X0044440Y0111400D01*
X0044440Y0108800D01*
X0157069Y0206300D02*
X0157069Y0208900D01*
X0157792Y0208900D01*
X0157839Y0208898D01*
X0157885Y0208893D01*
X0157930Y0208883D01*
X0157975Y0208870D01*
X0158019Y0208854D01*
X0158061Y0208834D01*
X0158101Y0208811D01*
X0158139Y0208784D01*
X0158175Y0208755D01*
X0158209Y0208722D01*
X0158240Y0208688D01*
X0158268Y0208650D01*
X0158293Y0208611D01*
X0158314Y0208570D01*
X0158332Y0208527D01*
X0158347Y0208483D01*
X0158358Y0208438D01*
X0158366Y0208392D01*
X0158370Y0208345D01*
X0158370Y0208299D01*
X0158366Y0208252D01*
X0158358Y0208206D01*
X0158347Y0208161D01*
X0158332Y0208117D01*
X0158314Y0208074D01*
X0158293Y0208033D01*
X0158268Y0207994D01*
X0158240Y0207956D01*
X0158209Y0207922D01*
X0158175Y0207889D01*
X0158139Y0207860D01*
X0158101Y0207833D01*
X0158061Y0207810D01*
X0158019Y0207790D01*
X0157975Y0207774D01*
X0157930Y0207761D01*
X0157885Y0207751D01*
X0157839Y0207746D01*
X0157792Y0207744D01*
X0157069Y0207744D01*
X0157792Y0207744D02*
X0157845Y0207742D01*
X0157897Y0207736D01*
X0157949Y0207727D01*
X0158000Y0207713D01*
X0158050Y0207696D01*
X0158098Y0207676D01*
X0158145Y0207652D01*
X0158190Y0207624D01*
X0158233Y0207593D01*
X0158274Y0207560D01*
X0158312Y0207523D01*
X0158347Y0207484D01*
X0158379Y0207442D01*
X0158408Y0207398D01*
X0158434Y0207352D01*
X0158456Y0207304D01*
X0158475Y0207255D01*
X0158491Y0207205D01*
X0158502Y0207153D01*
X0158510Y0207101D01*
X0158514Y0207048D01*
X0158514Y0206996D01*
X0158510Y0206943D01*
X0158502Y0206891D01*
X0158491Y0206839D01*
X0158475Y0206789D01*
X0158456Y0206740D01*
X0158434Y0206692D01*
X0158408Y0206646D01*
X0158379Y0206602D01*
X0158347Y0206560D01*
X0158312Y0206521D01*
X0158274Y0206484D01*
X0158233Y0206451D01*
X0158190Y0206420D01*
X0158145Y0206392D01*
X0158098Y0206368D01*
X0158050Y0206348D01*
X0158000Y0206331D01*
X0157949Y0206317D01*
X0157897Y0206308D01*
X0157845Y0206302D01*
X0157792Y0206300D01*
X0157069Y0206300D01*
X0160348Y0206300D02*
X0160348Y0207672D01*
X0161215Y0208900D01*
X0162469Y0208900D02*
X0162469Y0206300D01*
X0162469Y0207456D02*
X0163192Y0207456D01*
X0163245Y0207458D01*
X0163297Y0207464D01*
X0163349Y0207473D01*
X0163400Y0207487D01*
X0163450Y0207504D01*
X0163498Y0207524D01*
X0163545Y0207548D01*
X0163590Y0207576D01*
X0163633Y0207607D01*
X0163674Y0207640D01*
X0163712Y0207677D01*
X0163747Y0207716D01*
X0163779Y0207758D01*
X0163808Y0207802D01*
X0163834Y0207848D01*
X0163856Y0207896D01*
X0163875Y0207945D01*
X0163891Y0207995D01*
X0163902Y0208047D01*
X0163910Y0208099D01*
X0163914Y0208152D01*
X0163914Y0208204D01*
X0163910Y0208257D01*
X0163902Y0208309D01*
X0163891Y0208361D01*
X0163875Y0208411D01*
X0163856Y0208460D01*
X0163834Y0208508D01*
X0163808Y0208554D01*
X0163779Y0208598D01*
X0163747Y0208640D01*
X0163712Y0208679D01*
X0163674Y0208716D01*
X0163633Y0208749D01*
X0163590Y0208780D01*
X0163545Y0208808D01*
X0163498Y0208832D01*
X0163450Y0208852D01*
X0163400Y0208869D01*
X0163349Y0208883D01*
X0163297Y0208892D01*
X0163245Y0208898D01*
X0163192Y0208900D01*
X0162469Y0208900D01*
X0160348Y0207672D02*
X0159482Y0208900D01*
X0165098Y0206950D02*
X0166398Y0206950D01*
X0166615Y0206300D02*
X0165748Y0208900D01*
X0164882Y0206300D01*
X0167997Y0207817D02*
X0168792Y0207383D01*
X0168503Y0206300D02*
X0168434Y0206302D01*
X0168366Y0206308D01*
X0168297Y0206317D01*
X0168230Y0206331D01*
X0168163Y0206348D01*
X0168098Y0206369D01*
X0168033Y0206394D01*
X0167971Y0206422D01*
X0167910Y0206454D01*
X0167850Y0206489D01*
X0167793Y0206528D01*
X0167738Y0206569D01*
X0167686Y0206614D01*
X0167636Y0206661D01*
X0168792Y0207384D02*
X0168831Y0207358D01*
X0168869Y0207330D01*
X0168904Y0207299D01*
X0168936Y0207265D01*
X0168965Y0207228D01*
X0168992Y0207189D01*
X0169015Y0207149D01*
X0169035Y0207106D01*
X0169051Y0207062D01*
X0169064Y0207017D01*
X0169074Y0206971D01*
X0169079Y0206925D01*
X0169081Y0206878D01*
X0169079Y0206833D01*
X0169074Y0206788D01*
X0169065Y0206743D01*
X0169053Y0206699D01*
X0169037Y0206657D01*
X0169018Y0206616D01*
X0168996Y0206576D01*
X0168971Y0206538D01*
X0168943Y0206503D01*
X0168912Y0206469D01*
X0168878Y0206438D01*
X0168843Y0206410D01*
X0168805Y0206385D01*
X0168765Y0206363D01*
X0168724Y0206344D01*
X0168682Y0206328D01*
X0168638Y0206316D01*
X0168593Y0206307D01*
X0168548Y0206302D01*
X0168503Y0206300D01*
X0168936Y0208683D02*
X0168884Y0208720D01*
X0168830Y0208753D01*
X0168775Y0208784D01*
X0168717Y0208810D01*
X0168658Y0208834D01*
X0168598Y0208854D01*
X0168537Y0208870D01*
X0168475Y0208883D01*
X0168412Y0208893D01*
X0168349Y0208898D01*
X0168286Y0208900D01*
X0168241Y0208898D01*
X0168196Y0208893D01*
X0168151Y0208884D01*
X0168107Y0208872D01*
X0168065Y0208856D01*
X0168024Y0208837D01*
X0167984Y0208815D01*
X0167946Y0208790D01*
X0167911Y0208762D01*
X0167877Y0208731D01*
X0167846Y0208697D01*
X0167818Y0208662D01*
X0167793Y0208624D01*
X0167771Y0208584D01*
X0167752Y0208543D01*
X0167736Y0208501D01*
X0167724Y0208457D01*
X0167715Y0208412D01*
X0167710Y0208367D01*
X0167708Y0208322D01*
X0167710Y0208275D01*
X0167715Y0208229D01*
X0167725Y0208183D01*
X0167738Y0208138D01*
X0167754Y0208094D01*
X0167774Y0208051D01*
X0167797Y0208011D01*
X0167824Y0207972D01*
X0167853Y0207935D01*
X0167885Y0207901D01*
X0167920Y0207870D01*
X0167958Y0207842D01*
X0167997Y0207816D01*
X0170517Y0207817D02*
X0171312Y0207383D01*
X0171023Y0206300D02*
X0170954Y0206302D01*
X0170886Y0206308D01*
X0170817Y0206317D01*
X0170750Y0206331D01*
X0170683Y0206348D01*
X0170618Y0206369D01*
X0170553Y0206394D01*
X0170491Y0206422D01*
X0170430Y0206454D01*
X0170370Y0206489D01*
X0170313Y0206528D01*
X0170258Y0206569D01*
X0170206Y0206614D01*
X0170156Y0206661D01*
X0171312Y0207384D02*
X0171351Y0207358D01*
X0171389Y0207330D01*
X0171424Y0207299D01*
X0171456Y0207265D01*
X0171485Y0207228D01*
X0171512Y0207189D01*
X0171535Y0207149D01*
X0171555Y0207106D01*
X0171571Y0207062D01*
X0171584Y0207017D01*
X0171594Y0206971D01*
X0171599Y0206925D01*
X0171601Y0206878D01*
X0171599Y0206833D01*
X0171594Y0206788D01*
X0171585Y0206743D01*
X0171573Y0206699D01*
X0171557Y0206657D01*
X0171538Y0206616D01*
X0171516Y0206576D01*
X0171491Y0206538D01*
X0171463Y0206503D01*
X0171432Y0206469D01*
X0171398Y0206438D01*
X0171363Y0206410D01*
X0171325Y0206385D01*
X0171285Y0206363D01*
X0171244Y0206344D01*
X0171202Y0206328D01*
X0171158Y0206316D01*
X0171113Y0206307D01*
X0171068Y0206302D01*
X0171023Y0206300D01*
X0171456Y0208683D02*
X0171404Y0208720D01*
X0171350Y0208753D01*
X0171295Y0208784D01*
X0171237Y0208810D01*
X0171178Y0208834D01*
X0171118Y0208854D01*
X0171057Y0208870D01*
X0170995Y0208883D01*
X0170932Y0208893D01*
X0170869Y0208898D01*
X0170806Y0208900D01*
X0170761Y0208898D01*
X0170716Y0208893D01*
X0170671Y0208884D01*
X0170627Y0208872D01*
X0170585Y0208856D01*
X0170544Y0208837D01*
X0170504Y0208815D01*
X0170466Y0208790D01*
X0170431Y0208762D01*
X0170397Y0208731D01*
X0170366Y0208697D01*
X0170338Y0208662D01*
X0170313Y0208624D01*
X0170291Y0208584D01*
X0170272Y0208543D01*
X0170256Y0208501D01*
X0170244Y0208457D01*
X0170235Y0208412D01*
X0170230Y0208367D01*
X0170228Y0208322D01*
X0170230Y0208275D01*
X0170235Y0208229D01*
X0170245Y0208183D01*
X0170258Y0208138D01*
X0170274Y0208094D01*
X0170294Y0208051D01*
X0170317Y0208011D01*
X0170344Y0207972D01*
X0170373Y0207935D01*
X0170405Y0207901D01*
X0170440Y0207870D01*
X0170478Y0207842D01*
X0170517Y0207816D01*
X0174296Y0208900D02*
X0174296Y0206300D01*
X0175018Y0206300D01*
X0175070Y0206302D01*
X0175121Y0206307D01*
X0175171Y0206316D01*
X0175221Y0206329D01*
X0175270Y0206346D01*
X0175318Y0206365D01*
X0175364Y0206388D01*
X0175408Y0206415D01*
X0175451Y0206444D01*
X0175491Y0206476D01*
X0175529Y0206511D01*
X0175564Y0206549D01*
X0175596Y0206589D01*
X0175625Y0206632D01*
X0175652Y0206676D01*
X0175675Y0206722D01*
X0175694Y0206770D01*
X0175711Y0206819D01*
X0175724Y0206869D01*
X0175733Y0206919D01*
X0175738Y0206970D01*
X0175740Y0207022D01*
X0175741Y0207022D02*
X0175741Y0208178D01*
X0175740Y0208178D02*
X0175738Y0208230D01*
X0175733Y0208281D01*
X0175724Y0208331D01*
X0175711Y0208381D01*
X0175694Y0208430D01*
X0175675Y0208478D01*
X0175652Y0208524D01*
X0175625Y0208568D01*
X0175596Y0208611D01*
X0175564Y0208651D01*
X0175529Y0208689D01*
X0175491Y0208724D01*
X0175451Y0208756D01*
X0175408Y0208785D01*
X0175364Y0208812D01*
X0175318Y0208835D01*
X0175270Y0208854D01*
X0175221Y0208871D01*
X0175171Y0208884D01*
X0175121Y0208893D01*
X0175070Y0208898D01*
X0175018Y0208900D01*
X0174296Y0208900D01*
X0178313Y0207745D02*
X0178349Y0207781D01*
X0178382Y0207821D01*
X0178412Y0207862D01*
X0178439Y0207906D01*
X0178463Y0207952D01*
X0178483Y0207999D01*
X0178500Y0208047D01*
X0178513Y0208097D01*
X0178522Y0208148D01*
X0178528Y0208199D01*
X0178530Y0208250D01*
X0178314Y0207744D02*
X0177086Y0206300D01*
X0178530Y0206300D01*
X0177086Y0208322D02*
X0177104Y0208374D01*
X0177127Y0208425D01*
X0177152Y0208474D01*
X0177181Y0208521D01*
X0177212Y0208566D01*
X0177247Y0208609D01*
X0177284Y0208650D01*
X0177324Y0208688D01*
X0177367Y0208724D01*
X0177411Y0208756D01*
X0177458Y0208786D01*
X0177507Y0208812D01*
X0177557Y0208835D01*
X0177609Y0208855D01*
X0177662Y0208871D01*
X0177715Y0208884D01*
X0177770Y0208893D01*
X0177825Y0208898D01*
X0177880Y0208900D01*
X0177929Y0208898D01*
X0177977Y0208893D01*
X0178025Y0208884D01*
X0178072Y0208871D01*
X0178117Y0208855D01*
X0178162Y0208836D01*
X0178205Y0208813D01*
X0178246Y0208787D01*
X0178285Y0208758D01*
X0178322Y0208726D01*
X0178356Y0208692D01*
X0178388Y0208655D01*
X0178417Y0208616D01*
X0178443Y0208575D01*
X0178466Y0208532D01*
X0178485Y0208487D01*
X0178501Y0208442D01*
X0178514Y0208395D01*
X0178523Y0208347D01*
X0178528Y0208299D01*
X0178530Y0208250D01*
X0169917Y0232800D02*
X0168473Y0232800D01*
X0169701Y0234244D01*
X0169267Y0235400D02*
X0169212Y0235398D01*
X0169157Y0235393D01*
X0169102Y0235384D01*
X0169049Y0235371D01*
X0168996Y0235355D01*
X0168944Y0235335D01*
X0168894Y0235312D01*
X0168845Y0235286D01*
X0168798Y0235256D01*
X0168754Y0235224D01*
X0168711Y0235188D01*
X0168671Y0235150D01*
X0168634Y0235109D01*
X0168599Y0235066D01*
X0168568Y0235021D01*
X0168539Y0234974D01*
X0168514Y0234925D01*
X0168491Y0234874D01*
X0168473Y0234822D01*
X0169700Y0234245D02*
X0169736Y0234281D01*
X0169769Y0234321D01*
X0169799Y0234362D01*
X0169826Y0234406D01*
X0169850Y0234452D01*
X0169870Y0234499D01*
X0169887Y0234547D01*
X0169900Y0234597D01*
X0169909Y0234648D01*
X0169915Y0234699D01*
X0169917Y0234750D01*
X0169915Y0234799D01*
X0169910Y0234847D01*
X0169901Y0234895D01*
X0169888Y0234942D01*
X0169872Y0234987D01*
X0169853Y0235032D01*
X0169830Y0235075D01*
X0169804Y0235116D01*
X0169775Y0235155D01*
X0169743Y0235192D01*
X0169709Y0235226D01*
X0169672Y0235258D01*
X0169633Y0235287D01*
X0169592Y0235313D01*
X0169549Y0235336D01*
X0169504Y0235355D01*
X0169459Y0235371D01*
X0169412Y0235384D01*
X0169364Y0235393D01*
X0169316Y0235398D01*
X0169267Y0235400D01*
X0167127Y0234678D02*
X0167127Y0233522D01*
X0167125Y0233470D01*
X0167120Y0233419D01*
X0167111Y0233369D01*
X0167098Y0233319D01*
X0167081Y0233270D01*
X0167062Y0233222D01*
X0167039Y0233176D01*
X0167012Y0233132D01*
X0166983Y0233089D01*
X0166951Y0233049D01*
X0166916Y0233011D01*
X0166878Y0232976D01*
X0166838Y0232944D01*
X0166795Y0232915D01*
X0166751Y0232888D01*
X0166705Y0232865D01*
X0166657Y0232846D01*
X0166608Y0232829D01*
X0166558Y0232816D01*
X0166508Y0232807D01*
X0166457Y0232802D01*
X0166405Y0232800D01*
X0165683Y0232800D01*
X0165683Y0235400D01*
X0166405Y0235400D01*
X0166457Y0235398D01*
X0166508Y0235393D01*
X0166558Y0235384D01*
X0166608Y0235371D01*
X0166657Y0235354D01*
X0166705Y0235335D01*
X0166751Y0235312D01*
X0166795Y0235285D01*
X0166838Y0235256D01*
X0166878Y0235224D01*
X0166916Y0235189D01*
X0166951Y0235151D01*
X0166983Y0235111D01*
X0167012Y0235068D01*
X0167039Y0235024D01*
X0167062Y0234978D01*
X0167081Y0234930D01*
X0167098Y0234881D01*
X0167111Y0234831D01*
X0167120Y0234781D01*
X0167125Y0234730D01*
X0167127Y0234678D01*
D14*
X0156550Y0232850D03*
X0035350Y0232850D03*
D15*
X0043200Y0205600D02*
X0050000Y0205600D01*
X0050060Y0205598D01*
X0050121Y0205593D01*
X0050180Y0205584D01*
X0050239Y0205571D01*
X0050298Y0205555D01*
X0050355Y0205535D01*
X0050410Y0205512D01*
X0050465Y0205485D01*
X0050517Y0205456D01*
X0050568Y0205423D01*
X0050617Y0205387D01*
X0050663Y0205349D01*
X0050707Y0205307D01*
X0050749Y0205263D01*
X0050787Y0205217D01*
X0050823Y0205168D01*
X0050856Y0205117D01*
X0050885Y0205065D01*
X0050912Y0205010D01*
X0050935Y0204955D01*
X0050955Y0204898D01*
X0050971Y0204839D01*
X0050984Y0204780D01*
X0050993Y0204721D01*
X0050998Y0204660D01*
X0051000Y0204600D01*
X0051000Y0198600D01*
X0050998Y0198540D01*
X0050993Y0198479D01*
X0050984Y0198420D01*
X0050971Y0198361D01*
X0050955Y0198302D01*
X0050935Y0198245D01*
X0050912Y0198190D01*
X0050885Y0198135D01*
X0050856Y0198083D01*
X0050823Y0198032D01*
X0050787Y0197983D01*
X0050749Y0197937D01*
X0050707Y0197893D01*
X0050663Y0197851D01*
X0050617Y0197813D01*
X0050568Y0197777D01*
X0050517Y0197744D01*
X0050465Y0197715D01*
X0050410Y0197688D01*
X0050355Y0197665D01*
X0050298Y0197645D01*
X0050239Y0197629D01*
X0050180Y0197616D01*
X0050121Y0197607D01*
X0050060Y0197602D01*
X0050000Y0197600D01*
X0043200Y0197600D01*
X0043140Y0197602D01*
X0043079Y0197607D01*
X0043020Y0197616D01*
X0042961Y0197629D01*
X0042902Y0197645D01*
X0042845Y0197665D01*
X0042790Y0197688D01*
X0042735Y0197715D01*
X0042683Y0197744D01*
X0042632Y0197777D01*
X0042583Y0197813D01*
X0042537Y0197851D01*
X0042493Y0197893D01*
X0042451Y0197937D01*
X0042413Y0197983D01*
X0042377Y0198032D01*
X0042344Y0198083D01*
X0042315Y0198135D01*
X0042288Y0198190D01*
X0042265Y0198245D01*
X0042245Y0198302D01*
X0042229Y0198361D01*
X0042216Y0198420D01*
X0042207Y0198479D01*
X0042202Y0198540D01*
X0042200Y0198600D01*
X0042200Y0204600D01*
X0042202Y0204660D01*
X0042207Y0204721D01*
X0042216Y0204780D01*
X0042229Y0204839D01*
X0042245Y0204898D01*
X0042265Y0204955D01*
X0042288Y0205010D01*
X0042315Y0205065D01*
X0042344Y0205117D01*
X0042377Y0205168D01*
X0042413Y0205217D01*
X0042451Y0205263D01*
X0042493Y0205307D01*
X0042537Y0205349D01*
X0042583Y0205387D01*
X0042632Y0205423D01*
X0042683Y0205456D01*
X0042735Y0205485D01*
X0042790Y0205512D01*
X0042845Y0205535D01*
X0042902Y0205555D01*
X0042961Y0205571D01*
X0043020Y0205584D01*
X0043079Y0205593D01*
X0043140Y0205598D01*
X0043200Y0205600D01*
X0089400Y0219200D02*
X0089400Y0220000D01*
X0095000Y0220000D02*
X0095000Y0219200D01*
X0119400Y0219200D02*
X0119400Y0220000D01*
X0125000Y0220000D02*
X0125000Y0219200D01*
X0163400Y0204600D02*
X0163400Y0198600D01*
X0163402Y0198540D01*
X0163407Y0198479D01*
X0163416Y0198420D01*
X0163429Y0198361D01*
X0163445Y0198302D01*
X0163465Y0198245D01*
X0163488Y0198190D01*
X0163515Y0198135D01*
X0163544Y0198083D01*
X0163577Y0198032D01*
X0163613Y0197983D01*
X0163651Y0197937D01*
X0163693Y0197893D01*
X0163737Y0197851D01*
X0163783Y0197813D01*
X0163832Y0197777D01*
X0163883Y0197744D01*
X0163935Y0197715D01*
X0163990Y0197688D01*
X0164045Y0197665D01*
X0164102Y0197645D01*
X0164161Y0197629D01*
X0164220Y0197616D01*
X0164279Y0197607D01*
X0164340Y0197602D01*
X0164400Y0197600D01*
X0171200Y0197600D01*
X0171260Y0197602D01*
X0171321Y0197607D01*
X0171380Y0197616D01*
X0171439Y0197629D01*
X0171498Y0197645D01*
X0171555Y0197665D01*
X0171610Y0197688D01*
X0171665Y0197715D01*
X0171717Y0197744D01*
X0171768Y0197777D01*
X0171817Y0197813D01*
X0171863Y0197851D01*
X0171907Y0197893D01*
X0171949Y0197937D01*
X0171987Y0197983D01*
X0172023Y0198032D01*
X0172056Y0198083D01*
X0172085Y0198135D01*
X0172112Y0198190D01*
X0172135Y0198245D01*
X0172155Y0198302D01*
X0172171Y0198361D01*
X0172184Y0198420D01*
X0172193Y0198479D01*
X0172198Y0198540D01*
X0172200Y0198600D01*
X0172200Y0204600D01*
X0172198Y0204660D01*
X0172193Y0204721D01*
X0172184Y0204780D01*
X0172171Y0204839D01*
X0172155Y0204898D01*
X0172135Y0204955D01*
X0172112Y0205010D01*
X0172085Y0205065D01*
X0172056Y0205117D01*
X0172023Y0205168D01*
X0171987Y0205217D01*
X0171949Y0205263D01*
X0171907Y0205307D01*
X0171863Y0205349D01*
X0171817Y0205387D01*
X0171768Y0205423D01*
X0171717Y0205456D01*
X0171665Y0205485D01*
X0171610Y0205512D01*
X0171555Y0205535D01*
X0171498Y0205555D01*
X0171439Y0205571D01*
X0171380Y0205584D01*
X0171321Y0205593D01*
X0171260Y0205598D01*
X0171200Y0205600D01*
X0164400Y0205600D01*
X0164340Y0205598D01*
X0164279Y0205593D01*
X0164220Y0205584D01*
X0164161Y0205571D01*
X0164102Y0205555D01*
X0164045Y0205535D01*
X0163990Y0205512D01*
X0163935Y0205485D01*
X0163883Y0205456D01*
X0163832Y0205423D01*
X0163783Y0205387D01*
X0163737Y0205349D01*
X0163693Y0205307D01*
X0163651Y0205263D01*
X0163613Y0205217D01*
X0163577Y0205168D01*
X0163544Y0205117D01*
X0163515Y0205065D01*
X0163488Y0205010D01*
X0163465Y0204955D01*
X0163445Y0204898D01*
X0163429Y0204839D01*
X0163416Y0204780D01*
X0163407Y0204721D01*
X0163402Y0204660D01*
X0163400Y0204600D01*
M02*
