%
M48
M72
T01C0.0138
T02C0.0197
T03C0.0315
T04C0.0335
T05C0.0400
T06C0.0433
T07C0.0850
T08C0.0900
%
T01
X9860Y11560
X9660Y11960
X9460Y12360
X9260Y12760
X8260Y12760
X6360Y12860
X5960Y13260
X1760Y13460
X1660Y16560
X1860Y16960
X4510Y19510
X6560Y21060
X4660Y22660
X9220Y20410
X12860Y21160
X14460Y19160
X16360Y22110
X17160Y22110
T02
X10966Y20402
X10474Y20402
T03
X15493Y9660
X17067Y9660
T04
X10720Y19160
T05
X18520Y15760
X18520Y14760
X18520Y13760
X18520Y12760
X19520Y12760
X19520Y13760
X19520Y14760
X19520Y15760
X6160Y10160
X6160Y9160
X5160Y9160
X5160Y10160
X4160Y10160
X4160Y9160
T06
X9834Y9388
X11606Y9388
T07
X13023Y9361
X8417Y9361
T08
X2160Y3160
X2160Y9660
X2160Y22160
X19280Y22160
X19280Y9660
X19280Y3160
M30
