G75*
%MOIN*%
%OFA0B0*%
%FSLAX25Y25*%
%IPPOS*%
%LPD*%
%AMOC8*
5,1,8,0,0,1.08239X$1,22.5*
%
%ADD10R,0.03150X0.09843*%
%ADD11R,0.05000X0.02200*%
%ADD12R,0.02200X0.05000*%
%ADD13R,0.06500X0.03937*%
%ADD14R,0.03150X0.03543*%
%ADD15R,0.05500X0.04000*%
%ADD16R,0.03150X0.04724*%
D10*
X0093220Y0104710D03*
X0103157Y0104710D03*
X0111243Y0104710D03*
X0120980Y0104710D03*
D11*
G36*
X0063890Y0156744D02*
X0060356Y0153210D01*
X0058800Y0154766D01*
X0062334Y0158300D01*
X0063890Y0156744D01*
G37*
G36*
X0061663Y0158971D02*
X0058129Y0155437D01*
X0056573Y0156993D01*
X0060107Y0160527D01*
X0061663Y0158971D01*
G37*
G36*
X0059436Y0161198D02*
X0055902Y0157664D01*
X0054346Y0159220D01*
X0057880Y0162754D01*
X0059436Y0161198D01*
G37*
G36*
X0057209Y0163426D02*
X0053675Y0159892D01*
X0052119Y0161448D01*
X0055653Y0164982D01*
X0057209Y0163426D01*
G37*
G36*
X0054982Y0165653D02*
X0051448Y0162119D01*
X0049892Y0163675D01*
X0053426Y0167209D01*
X0054982Y0165653D01*
G37*
G36*
X0052754Y0167880D02*
X0049220Y0164346D01*
X0047664Y0165902D01*
X0051198Y0169436D01*
X0052754Y0167880D01*
G37*
G36*
X0050527Y0170107D02*
X0046993Y0166573D01*
X0045437Y0168129D01*
X0048971Y0171663D01*
X0050527Y0170107D01*
G37*
G36*
X0048300Y0172334D02*
X0044766Y0168800D01*
X0043210Y0170356D01*
X0046744Y0173890D01*
X0048300Y0172334D01*
G37*
G36*
X0024400Y0148434D02*
X0020866Y0144900D01*
X0019310Y0146456D01*
X0022844Y0149990D01*
X0024400Y0148434D01*
G37*
G36*
X0026627Y0146207D02*
X0023093Y0142673D01*
X0021537Y0144229D01*
X0025071Y0147763D01*
X0026627Y0146207D01*
G37*
G36*
X0028854Y0143980D02*
X0025320Y0140446D01*
X0023764Y0142002D01*
X0027298Y0145536D01*
X0028854Y0143980D01*
G37*
G36*
X0031081Y0141752D02*
X0027547Y0138218D01*
X0025991Y0139774D01*
X0029525Y0143308D01*
X0031081Y0141752D01*
G37*
G36*
X0033308Y0139525D02*
X0029774Y0135991D01*
X0028218Y0137547D01*
X0031752Y0141081D01*
X0033308Y0139525D01*
G37*
G36*
X0035536Y0137298D02*
X0032002Y0133764D01*
X0030446Y0135320D01*
X0033980Y0138854D01*
X0035536Y0137298D01*
G37*
G36*
X0037763Y0135071D02*
X0034229Y0131537D01*
X0032673Y0133093D01*
X0036207Y0136627D01*
X0037763Y0135071D01*
G37*
G36*
X0039990Y0132844D02*
X0036456Y0129310D01*
X0034900Y0130866D01*
X0038434Y0134400D01*
X0039990Y0132844D01*
G37*
D12*
G36*
X0048300Y0130866D02*
X0046744Y0129310D01*
X0043210Y0132844D01*
X0044766Y0134400D01*
X0048300Y0130866D01*
G37*
G36*
X0050527Y0133093D02*
X0048971Y0131537D01*
X0045437Y0135071D01*
X0046993Y0136627D01*
X0050527Y0133093D01*
G37*
G36*
X0052754Y0135320D02*
X0051198Y0133764D01*
X0047664Y0137298D01*
X0049220Y0138854D01*
X0052754Y0135320D01*
G37*
G36*
X0054982Y0137547D02*
X0053426Y0135991D01*
X0049892Y0139525D01*
X0051448Y0141081D01*
X0054982Y0137547D01*
G37*
G36*
X0057209Y0139774D02*
X0055653Y0138218D01*
X0052119Y0141752D01*
X0053675Y0143308D01*
X0057209Y0139774D01*
G37*
G36*
X0059436Y0142002D02*
X0057880Y0140446D01*
X0054346Y0143980D01*
X0055902Y0145536D01*
X0059436Y0142002D01*
G37*
G36*
X0061663Y0144229D02*
X0060107Y0142673D01*
X0056573Y0146207D01*
X0058129Y0147763D01*
X0061663Y0144229D01*
G37*
G36*
X0063890Y0146456D02*
X0062334Y0144900D01*
X0058800Y0148434D01*
X0060356Y0149990D01*
X0063890Y0146456D01*
G37*
G36*
X0039990Y0170356D02*
X0038434Y0168800D01*
X0034900Y0172334D01*
X0036456Y0173890D01*
X0039990Y0170356D01*
G37*
G36*
X0037763Y0168129D02*
X0036207Y0166573D01*
X0032673Y0170107D01*
X0034229Y0171663D01*
X0037763Y0168129D01*
G37*
G36*
X0035536Y0165902D02*
X0033980Y0164346D01*
X0030446Y0167880D01*
X0032002Y0169436D01*
X0035536Y0165902D01*
G37*
G36*
X0033308Y0163675D02*
X0031752Y0162119D01*
X0028218Y0165653D01*
X0029774Y0167209D01*
X0033308Y0163675D01*
G37*
G36*
X0031081Y0161448D02*
X0029525Y0159892D01*
X0025991Y0163426D01*
X0027547Y0164982D01*
X0031081Y0161448D01*
G37*
G36*
X0028854Y0159220D02*
X0027298Y0157664D01*
X0023764Y0161198D01*
X0025320Y0162754D01*
X0028854Y0159220D01*
G37*
G36*
X0026627Y0156993D02*
X0025071Y0155437D01*
X0021537Y0158971D01*
X0023093Y0160527D01*
X0026627Y0156993D01*
G37*
G36*
X0024400Y0154766D02*
X0022844Y0153210D01*
X0019310Y0156744D01*
X0020866Y0158300D01*
X0024400Y0154766D01*
G37*
D13*
X0036454Y0215301D03*
X0036454Y0227899D03*
X0056746Y0227899D03*
X0056746Y0215301D03*
X0157654Y0215301D03*
X0157654Y0227899D03*
X0177946Y0227899D03*
X0177946Y0215301D03*
D14*
X0110940Y0223537D03*
X0103460Y0223537D03*
X0107200Y0215269D03*
D15*
X0092200Y0215900D03*
X0092200Y0223300D03*
X0122200Y0223300D03*
X0122200Y0215900D03*
D16*
X0125643Y0196600D03*
X0118557Y0196600D03*
M02*
