G75*
%MOIN*%
%OFA0B0*%
%FSLAX25Y25*%
%IPPOS*%
%LPD*%
%AMOC8*
5,1,8,0,0,1.08239X$1,22.5*
%
%ADD10C,0.09800*%
%ADD11C,0.04146*%
%ADD12C,0.02400*%
%ADD13C,0.08200*%
%ADD14OC8,0.13300*%
%ADD15C,0.05131*%
%ADD16C,0.07400*%
%ADD17R,0.07300X0.04737*%
%ADD18C,0.04769*%
%ADD19C,0.03778*%
D10*
X0021600Y0031600D03*
X0021600Y0096600D03*
X0021600Y0221600D03*
X0192800Y0221600D03*
X0192800Y0096600D03*
X0192800Y0031600D03*
D11*
X0107200Y0191600D03*
D12*
X0154600Y0185600D02*
X0154602Y0185772D01*
X0154608Y0185943D01*
X0154619Y0186115D01*
X0154634Y0186286D01*
X0154653Y0186457D01*
X0154676Y0186627D01*
X0154703Y0186797D01*
X0154735Y0186966D01*
X0154770Y0187134D01*
X0154810Y0187301D01*
X0154854Y0187467D01*
X0154901Y0187632D01*
X0154953Y0187796D01*
X0155009Y0187958D01*
X0155069Y0188119D01*
X0155133Y0188279D01*
X0155201Y0188437D01*
X0155272Y0188593D01*
X0155347Y0188747D01*
X0155427Y0188900D01*
X0155509Y0189050D01*
X0155596Y0189199D01*
X0155686Y0189345D01*
X0155780Y0189489D01*
X0155877Y0189631D01*
X0155978Y0189770D01*
X0156082Y0189907D01*
X0156189Y0190041D01*
X0156300Y0190172D01*
X0156413Y0190301D01*
X0156530Y0190427D01*
X0156650Y0190550D01*
X0156773Y0190670D01*
X0156899Y0190787D01*
X0157028Y0190900D01*
X0157159Y0191011D01*
X0157293Y0191118D01*
X0157430Y0191222D01*
X0157569Y0191323D01*
X0157711Y0191420D01*
X0157855Y0191514D01*
X0158001Y0191604D01*
X0158150Y0191691D01*
X0158300Y0191773D01*
X0158453Y0191853D01*
X0158607Y0191928D01*
X0158763Y0191999D01*
X0158921Y0192067D01*
X0159081Y0192131D01*
X0159242Y0192191D01*
X0159404Y0192247D01*
X0159568Y0192299D01*
X0159733Y0192346D01*
X0159899Y0192390D01*
X0160066Y0192430D01*
X0160234Y0192465D01*
X0160403Y0192497D01*
X0160573Y0192524D01*
X0160743Y0192547D01*
X0160914Y0192566D01*
X0161085Y0192581D01*
X0161257Y0192592D01*
X0161428Y0192598D01*
X0161600Y0192600D01*
X0161772Y0192598D01*
X0161943Y0192592D01*
X0162115Y0192581D01*
X0162286Y0192566D01*
X0162457Y0192547D01*
X0162627Y0192524D01*
X0162797Y0192497D01*
X0162966Y0192465D01*
X0163134Y0192430D01*
X0163301Y0192390D01*
X0163467Y0192346D01*
X0163632Y0192299D01*
X0163796Y0192247D01*
X0163958Y0192191D01*
X0164119Y0192131D01*
X0164279Y0192067D01*
X0164437Y0191999D01*
X0164593Y0191928D01*
X0164747Y0191853D01*
X0164900Y0191773D01*
X0165050Y0191691D01*
X0165199Y0191604D01*
X0165345Y0191514D01*
X0165489Y0191420D01*
X0165631Y0191323D01*
X0165770Y0191222D01*
X0165907Y0191118D01*
X0166041Y0191011D01*
X0166172Y0190900D01*
X0166301Y0190787D01*
X0166427Y0190670D01*
X0166550Y0190550D01*
X0166670Y0190427D01*
X0166787Y0190301D01*
X0166900Y0190172D01*
X0167011Y0190041D01*
X0167118Y0189907D01*
X0167222Y0189770D01*
X0167323Y0189631D01*
X0167420Y0189489D01*
X0167514Y0189345D01*
X0167604Y0189199D01*
X0167691Y0189050D01*
X0167773Y0188900D01*
X0167853Y0188747D01*
X0167928Y0188593D01*
X0167999Y0188437D01*
X0168067Y0188279D01*
X0168131Y0188119D01*
X0168191Y0187958D01*
X0168247Y0187796D01*
X0168299Y0187632D01*
X0168346Y0187467D01*
X0168390Y0187301D01*
X0168430Y0187134D01*
X0168465Y0186966D01*
X0168497Y0186797D01*
X0168524Y0186627D01*
X0168547Y0186457D01*
X0168566Y0186286D01*
X0168581Y0186115D01*
X0168592Y0185943D01*
X0168598Y0185772D01*
X0168600Y0185600D01*
X0168598Y0185428D01*
X0168592Y0185257D01*
X0168581Y0185085D01*
X0168566Y0184914D01*
X0168547Y0184743D01*
X0168524Y0184573D01*
X0168497Y0184403D01*
X0168465Y0184234D01*
X0168430Y0184066D01*
X0168390Y0183899D01*
X0168346Y0183733D01*
X0168299Y0183568D01*
X0168247Y0183404D01*
X0168191Y0183242D01*
X0168131Y0183081D01*
X0168067Y0182921D01*
X0167999Y0182763D01*
X0167928Y0182607D01*
X0167853Y0182453D01*
X0167773Y0182300D01*
X0167691Y0182150D01*
X0167604Y0182001D01*
X0167514Y0181855D01*
X0167420Y0181711D01*
X0167323Y0181569D01*
X0167222Y0181430D01*
X0167118Y0181293D01*
X0167011Y0181159D01*
X0166900Y0181028D01*
X0166787Y0180899D01*
X0166670Y0180773D01*
X0166550Y0180650D01*
X0166427Y0180530D01*
X0166301Y0180413D01*
X0166172Y0180300D01*
X0166041Y0180189D01*
X0165907Y0180082D01*
X0165770Y0179978D01*
X0165631Y0179877D01*
X0165489Y0179780D01*
X0165345Y0179686D01*
X0165199Y0179596D01*
X0165050Y0179509D01*
X0164900Y0179427D01*
X0164747Y0179347D01*
X0164593Y0179272D01*
X0164437Y0179201D01*
X0164279Y0179133D01*
X0164119Y0179069D01*
X0163958Y0179009D01*
X0163796Y0178953D01*
X0163632Y0178901D01*
X0163467Y0178854D01*
X0163301Y0178810D01*
X0163134Y0178770D01*
X0162966Y0178735D01*
X0162797Y0178703D01*
X0162627Y0178676D01*
X0162457Y0178653D01*
X0162286Y0178634D01*
X0162115Y0178619D01*
X0161943Y0178608D01*
X0161772Y0178602D01*
X0161600Y0178600D01*
X0161428Y0178602D01*
X0161257Y0178608D01*
X0161085Y0178619D01*
X0160914Y0178634D01*
X0160743Y0178653D01*
X0160573Y0178676D01*
X0160403Y0178703D01*
X0160234Y0178735D01*
X0160066Y0178770D01*
X0159899Y0178810D01*
X0159733Y0178854D01*
X0159568Y0178901D01*
X0159404Y0178953D01*
X0159242Y0179009D01*
X0159081Y0179069D01*
X0158921Y0179133D01*
X0158763Y0179201D01*
X0158607Y0179272D01*
X0158453Y0179347D01*
X0158300Y0179427D01*
X0158150Y0179509D01*
X0158001Y0179596D01*
X0157855Y0179686D01*
X0157711Y0179780D01*
X0157569Y0179877D01*
X0157430Y0179978D01*
X0157293Y0180082D01*
X0157159Y0180189D01*
X0157028Y0180300D01*
X0156899Y0180413D01*
X0156773Y0180530D01*
X0156650Y0180650D01*
X0156530Y0180773D01*
X0156413Y0180899D01*
X0156300Y0181028D01*
X0156189Y0181159D01*
X0156082Y0181293D01*
X0155978Y0181430D01*
X0155877Y0181569D01*
X0155780Y0181711D01*
X0155686Y0181855D01*
X0155596Y0182001D01*
X0155509Y0182150D01*
X0155427Y0182300D01*
X0155347Y0182453D01*
X0155272Y0182607D01*
X0155201Y0182763D01*
X0155133Y0182921D01*
X0155069Y0183081D01*
X0155009Y0183242D01*
X0154953Y0183404D01*
X0154901Y0183568D01*
X0154854Y0183733D01*
X0154810Y0183899D01*
X0154770Y0184066D01*
X0154735Y0184234D01*
X0154703Y0184403D01*
X0154676Y0184573D01*
X0154653Y0184743D01*
X0154634Y0184914D01*
X0154619Y0185085D01*
X0154608Y0185257D01*
X0154602Y0185428D01*
X0154600Y0185600D01*
X0168600Y0185600D02*
X0168600Y0168100D01*
X0168600Y0185600D02*
X0168602Y0185772D01*
X0168608Y0185943D01*
X0168619Y0186115D01*
X0168634Y0186286D01*
X0168653Y0186457D01*
X0168676Y0186627D01*
X0168703Y0186797D01*
X0168735Y0186966D01*
X0168770Y0187134D01*
X0168810Y0187301D01*
X0168854Y0187467D01*
X0168901Y0187632D01*
X0168953Y0187796D01*
X0169009Y0187958D01*
X0169069Y0188119D01*
X0169133Y0188279D01*
X0169201Y0188437D01*
X0169272Y0188593D01*
X0169347Y0188747D01*
X0169427Y0188900D01*
X0169509Y0189050D01*
X0169596Y0189199D01*
X0169686Y0189345D01*
X0169780Y0189489D01*
X0169877Y0189631D01*
X0169978Y0189770D01*
X0170082Y0189907D01*
X0170189Y0190041D01*
X0170300Y0190172D01*
X0170413Y0190301D01*
X0170530Y0190427D01*
X0170650Y0190550D01*
X0170773Y0190670D01*
X0170899Y0190787D01*
X0171028Y0190900D01*
X0171159Y0191011D01*
X0171293Y0191118D01*
X0171430Y0191222D01*
X0171569Y0191323D01*
X0171711Y0191420D01*
X0171855Y0191514D01*
X0172001Y0191604D01*
X0172150Y0191691D01*
X0172300Y0191773D01*
X0172453Y0191853D01*
X0172607Y0191928D01*
X0172763Y0191999D01*
X0172921Y0192067D01*
X0173081Y0192131D01*
X0173242Y0192191D01*
X0173404Y0192247D01*
X0173568Y0192299D01*
X0173733Y0192346D01*
X0173899Y0192390D01*
X0174066Y0192430D01*
X0174234Y0192465D01*
X0174403Y0192497D01*
X0174573Y0192524D01*
X0174743Y0192547D01*
X0174914Y0192566D01*
X0175085Y0192581D01*
X0175257Y0192592D01*
X0175428Y0192598D01*
X0175600Y0192600D01*
X0175772Y0192598D01*
X0175943Y0192592D01*
X0176115Y0192581D01*
X0176286Y0192566D01*
X0176457Y0192547D01*
X0176627Y0192524D01*
X0176797Y0192497D01*
X0176966Y0192465D01*
X0177134Y0192430D01*
X0177301Y0192390D01*
X0177467Y0192346D01*
X0177632Y0192299D01*
X0177796Y0192247D01*
X0177958Y0192191D01*
X0178119Y0192131D01*
X0178279Y0192067D01*
X0178437Y0191999D01*
X0178593Y0191928D01*
X0178747Y0191853D01*
X0178900Y0191773D01*
X0179050Y0191691D01*
X0179199Y0191604D01*
X0179345Y0191514D01*
X0179489Y0191420D01*
X0179631Y0191323D01*
X0179770Y0191222D01*
X0179907Y0191118D01*
X0180041Y0191011D01*
X0180172Y0190900D01*
X0180301Y0190787D01*
X0180427Y0190670D01*
X0180550Y0190550D01*
X0180670Y0190427D01*
X0180787Y0190301D01*
X0180900Y0190172D01*
X0181011Y0190041D01*
X0181118Y0189907D01*
X0181222Y0189770D01*
X0181323Y0189631D01*
X0181420Y0189489D01*
X0181514Y0189345D01*
X0181604Y0189199D01*
X0181691Y0189050D01*
X0181773Y0188900D01*
X0181853Y0188747D01*
X0181928Y0188593D01*
X0181999Y0188437D01*
X0182067Y0188279D01*
X0182131Y0188119D01*
X0182191Y0187958D01*
X0182247Y0187796D01*
X0182299Y0187632D01*
X0182346Y0187467D01*
X0182390Y0187301D01*
X0182430Y0187134D01*
X0182465Y0186966D01*
X0182497Y0186797D01*
X0182524Y0186627D01*
X0182547Y0186457D01*
X0182566Y0186286D01*
X0182581Y0186115D01*
X0182592Y0185943D01*
X0182598Y0185772D01*
X0182600Y0185600D01*
X0182598Y0185428D01*
X0182592Y0185257D01*
X0182581Y0185085D01*
X0182566Y0184914D01*
X0182547Y0184743D01*
X0182524Y0184573D01*
X0182497Y0184403D01*
X0182465Y0184234D01*
X0182430Y0184066D01*
X0182390Y0183899D01*
X0182346Y0183733D01*
X0182299Y0183568D01*
X0182247Y0183404D01*
X0182191Y0183242D01*
X0182131Y0183081D01*
X0182067Y0182921D01*
X0181999Y0182763D01*
X0181928Y0182607D01*
X0181853Y0182453D01*
X0181773Y0182300D01*
X0181691Y0182150D01*
X0181604Y0182001D01*
X0181514Y0181855D01*
X0181420Y0181711D01*
X0181323Y0181569D01*
X0181222Y0181430D01*
X0181118Y0181293D01*
X0181011Y0181159D01*
X0180900Y0181028D01*
X0180787Y0180899D01*
X0180670Y0180773D01*
X0180550Y0180650D01*
X0180427Y0180530D01*
X0180301Y0180413D01*
X0180172Y0180300D01*
X0180041Y0180189D01*
X0179907Y0180082D01*
X0179770Y0179978D01*
X0179631Y0179877D01*
X0179489Y0179780D01*
X0179345Y0179686D01*
X0179199Y0179596D01*
X0179050Y0179509D01*
X0178900Y0179427D01*
X0178747Y0179347D01*
X0178593Y0179272D01*
X0178437Y0179201D01*
X0178279Y0179133D01*
X0178119Y0179069D01*
X0177958Y0179009D01*
X0177796Y0178953D01*
X0177632Y0178901D01*
X0177467Y0178854D01*
X0177301Y0178810D01*
X0177134Y0178770D01*
X0176966Y0178735D01*
X0176797Y0178703D01*
X0176627Y0178676D01*
X0176457Y0178653D01*
X0176286Y0178634D01*
X0176115Y0178619D01*
X0175943Y0178608D01*
X0175772Y0178602D01*
X0175600Y0178600D01*
X0175428Y0178602D01*
X0175257Y0178608D01*
X0175085Y0178619D01*
X0174914Y0178634D01*
X0174743Y0178653D01*
X0174573Y0178676D01*
X0174403Y0178703D01*
X0174234Y0178735D01*
X0174066Y0178770D01*
X0173899Y0178810D01*
X0173733Y0178854D01*
X0173568Y0178901D01*
X0173404Y0178953D01*
X0173242Y0179009D01*
X0173081Y0179069D01*
X0172921Y0179133D01*
X0172763Y0179201D01*
X0172607Y0179272D01*
X0172453Y0179347D01*
X0172300Y0179427D01*
X0172150Y0179509D01*
X0172001Y0179596D01*
X0171855Y0179686D01*
X0171711Y0179780D01*
X0171569Y0179877D01*
X0171430Y0179978D01*
X0171293Y0180082D01*
X0171159Y0180189D01*
X0171028Y0180300D01*
X0170899Y0180413D01*
X0170773Y0180530D01*
X0170650Y0180650D01*
X0170530Y0180773D01*
X0170413Y0180899D01*
X0170300Y0181028D01*
X0170189Y0181159D01*
X0170082Y0181293D01*
X0169978Y0181430D01*
X0169877Y0181569D01*
X0169780Y0181711D01*
X0169686Y0181855D01*
X0169596Y0182001D01*
X0169509Y0182150D01*
X0169427Y0182300D01*
X0169347Y0182453D01*
X0169272Y0182607D01*
X0169201Y0182763D01*
X0169133Y0182921D01*
X0169069Y0183081D01*
X0169009Y0183242D01*
X0168953Y0183404D01*
X0168901Y0183568D01*
X0168854Y0183733D01*
X0168810Y0183899D01*
X0168770Y0184066D01*
X0168735Y0184234D01*
X0168703Y0184403D01*
X0168676Y0184573D01*
X0168653Y0184743D01*
X0168634Y0184914D01*
X0168619Y0185085D01*
X0168608Y0185257D01*
X0168602Y0185428D01*
X0168600Y0185600D01*
X0182600Y0185100D02*
X0182600Y0203100D01*
X0196600Y0203100D02*
X0196600Y0185600D01*
X0182600Y0185600D02*
X0182602Y0185772D01*
X0182608Y0185943D01*
X0182619Y0186115D01*
X0182634Y0186286D01*
X0182653Y0186457D01*
X0182676Y0186627D01*
X0182703Y0186797D01*
X0182735Y0186966D01*
X0182770Y0187134D01*
X0182810Y0187301D01*
X0182854Y0187467D01*
X0182901Y0187632D01*
X0182953Y0187796D01*
X0183009Y0187958D01*
X0183069Y0188119D01*
X0183133Y0188279D01*
X0183201Y0188437D01*
X0183272Y0188593D01*
X0183347Y0188747D01*
X0183427Y0188900D01*
X0183509Y0189050D01*
X0183596Y0189199D01*
X0183686Y0189345D01*
X0183780Y0189489D01*
X0183877Y0189631D01*
X0183978Y0189770D01*
X0184082Y0189907D01*
X0184189Y0190041D01*
X0184300Y0190172D01*
X0184413Y0190301D01*
X0184530Y0190427D01*
X0184650Y0190550D01*
X0184773Y0190670D01*
X0184899Y0190787D01*
X0185028Y0190900D01*
X0185159Y0191011D01*
X0185293Y0191118D01*
X0185430Y0191222D01*
X0185569Y0191323D01*
X0185711Y0191420D01*
X0185855Y0191514D01*
X0186001Y0191604D01*
X0186150Y0191691D01*
X0186300Y0191773D01*
X0186453Y0191853D01*
X0186607Y0191928D01*
X0186763Y0191999D01*
X0186921Y0192067D01*
X0187081Y0192131D01*
X0187242Y0192191D01*
X0187404Y0192247D01*
X0187568Y0192299D01*
X0187733Y0192346D01*
X0187899Y0192390D01*
X0188066Y0192430D01*
X0188234Y0192465D01*
X0188403Y0192497D01*
X0188573Y0192524D01*
X0188743Y0192547D01*
X0188914Y0192566D01*
X0189085Y0192581D01*
X0189257Y0192592D01*
X0189428Y0192598D01*
X0189600Y0192600D01*
X0189772Y0192598D01*
X0189943Y0192592D01*
X0190115Y0192581D01*
X0190286Y0192566D01*
X0190457Y0192547D01*
X0190627Y0192524D01*
X0190797Y0192497D01*
X0190966Y0192465D01*
X0191134Y0192430D01*
X0191301Y0192390D01*
X0191467Y0192346D01*
X0191632Y0192299D01*
X0191796Y0192247D01*
X0191958Y0192191D01*
X0192119Y0192131D01*
X0192279Y0192067D01*
X0192437Y0191999D01*
X0192593Y0191928D01*
X0192747Y0191853D01*
X0192900Y0191773D01*
X0193050Y0191691D01*
X0193199Y0191604D01*
X0193345Y0191514D01*
X0193489Y0191420D01*
X0193631Y0191323D01*
X0193770Y0191222D01*
X0193907Y0191118D01*
X0194041Y0191011D01*
X0194172Y0190900D01*
X0194301Y0190787D01*
X0194427Y0190670D01*
X0194550Y0190550D01*
X0194670Y0190427D01*
X0194787Y0190301D01*
X0194900Y0190172D01*
X0195011Y0190041D01*
X0195118Y0189907D01*
X0195222Y0189770D01*
X0195323Y0189631D01*
X0195420Y0189489D01*
X0195514Y0189345D01*
X0195604Y0189199D01*
X0195691Y0189050D01*
X0195773Y0188900D01*
X0195853Y0188747D01*
X0195928Y0188593D01*
X0195999Y0188437D01*
X0196067Y0188279D01*
X0196131Y0188119D01*
X0196191Y0187958D01*
X0196247Y0187796D01*
X0196299Y0187632D01*
X0196346Y0187467D01*
X0196390Y0187301D01*
X0196430Y0187134D01*
X0196465Y0186966D01*
X0196497Y0186797D01*
X0196524Y0186627D01*
X0196547Y0186457D01*
X0196566Y0186286D01*
X0196581Y0186115D01*
X0196592Y0185943D01*
X0196598Y0185772D01*
X0196600Y0185600D01*
X0196598Y0185428D01*
X0196592Y0185257D01*
X0196581Y0185085D01*
X0196566Y0184914D01*
X0196547Y0184743D01*
X0196524Y0184573D01*
X0196497Y0184403D01*
X0196465Y0184234D01*
X0196430Y0184066D01*
X0196390Y0183899D01*
X0196346Y0183733D01*
X0196299Y0183568D01*
X0196247Y0183404D01*
X0196191Y0183242D01*
X0196131Y0183081D01*
X0196067Y0182921D01*
X0195999Y0182763D01*
X0195928Y0182607D01*
X0195853Y0182453D01*
X0195773Y0182300D01*
X0195691Y0182150D01*
X0195604Y0182001D01*
X0195514Y0181855D01*
X0195420Y0181711D01*
X0195323Y0181569D01*
X0195222Y0181430D01*
X0195118Y0181293D01*
X0195011Y0181159D01*
X0194900Y0181028D01*
X0194787Y0180899D01*
X0194670Y0180773D01*
X0194550Y0180650D01*
X0194427Y0180530D01*
X0194301Y0180413D01*
X0194172Y0180300D01*
X0194041Y0180189D01*
X0193907Y0180082D01*
X0193770Y0179978D01*
X0193631Y0179877D01*
X0193489Y0179780D01*
X0193345Y0179686D01*
X0193199Y0179596D01*
X0193050Y0179509D01*
X0192900Y0179427D01*
X0192747Y0179347D01*
X0192593Y0179272D01*
X0192437Y0179201D01*
X0192279Y0179133D01*
X0192119Y0179069D01*
X0191958Y0179009D01*
X0191796Y0178953D01*
X0191632Y0178901D01*
X0191467Y0178854D01*
X0191301Y0178810D01*
X0191134Y0178770D01*
X0190966Y0178735D01*
X0190797Y0178703D01*
X0190627Y0178676D01*
X0190457Y0178653D01*
X0190286Y0178634D01*
X0190115Y0178619D01*
X0189943Y0178608D01*
X0189772Y0178602D01*
X0189600Y0178600D01*
X0189428Y0178602D01*
X0189257Y0178608D01*
X0189085Y0178619D01*
X0188914Y0178634D01*
X0188743Y0178653D01*
X0188573Y0178676D01*
X0188403Y0178703D01*
X0188234Y0178735D01*
X0188066Y0178770D01*
X0187899Y0178810D01*
X0187733Y0178854D01*
X0187568Y0178901D01*
X0187404Y0178953D01*
X0187242Y0179009D01*
X0187081Y0179069D01*
X0186921Y0179133D01*
X0186763Y0179201D01*
X0186607Y0179272D01*
X0186453Y0179347D01*
X0186300Y0179427D01*
X0186150Y0179509D01*
X0186001Y0179596D01*
X0185855Y0179686D01*
X0185711Y0179780D01*
X0185569Y0179877D01*
X0185430Y0179978D01*
X0185293Y0180082D01*
X0185159Y0180189D01*
X0185028Y0180300D01*
X0184899Y0180413D01*
X0184773Y0180530D01*
X0184650Y0180650D01*
X0184530Y0180773D01*
X0184413Y0180899D01*
X0184300Y0181028D01*
X0184189Y0181159D01*
X0184082Y0181293D01*
X0183978Y0181430D01*
X0183877Y0181569D01*
X0183780Y0181711D01*
X0183686Y0181855D01*
X0183596Y0182001D01*
X0183509Y0182150D01*
X0183427Y0182300D01*
X0183347Y0182453D01*
X0183272Y0182607D01*
X0183201Y0182763D01*
X0183133Y0182921D01*
X0183069Y0183081D01*
X0183009Y0183242D01*
X0182953Y0183404D01*
X0182901Y0183568D01*
X0182854Y0183733D01*
X0182810Y0183899D01*
X0182770Y0184066D01*
X0182735Y0184234D01*
X0182703Y0184403D01*
X0182676Y0184573D01*
X0182653Y0184743D01*
X0182634Y0184914D01*
X0182619Y0185085D01*
X0182608Y0185257D01*
X0182602Y0185428D01*
X0182600Y0185600D01*
D13*
X0185200Y0157600D03*
X0185200Y0147600D03*
X0185200Y0137600D03*
X0185200Y0127600D03*
X0195200Y0127600D03*
X0195200Y0137600D03*
X0195200Y0147600D03*
X0195200Y0157600D03*
X0061600Y0101600D03*
X0061600Y0091600D03*
X0051600Y0091600D03*
X0051600Y0101600D03*
X0041600Y0101600D03*
X0041600Y0091600D03*
D14*
X0084169Y0093608D03*
X0130231Y0093608D03*
D15*
X0116058Y0093883D03*
X0098342Y0093883D03*
D16*
X0154926Y0096600D03*
X0170674Y0096600D03*
D17*
X0177946Y0215301D03*
X0177946Y0227899D03*
X0157654Y0227899D03*
X0157654Y0215301D03*
X0056746Y0215301D03*
X0056746Y0227899D03*
X0036454Y0227899D03*
X0036454Y0215301D03*
D18*
X0104739Y0204021D03*
X0109661Y0204021D03*
D19*
X0092200Y0204100D03*
X0065600Y0210600D03*
X0046600Y0226600D03*
X0045100Y0195100D03*
X0018600Y0169600D03*
X0016600Y0165600D03*
X0017600Y0134600D03*
X0059600Y0132600D03*
X0063600Y0128600D03*
X0082600Y0127600D03*
X0092600Y0127600D03*
X0094600Y0123600D03*
X0096600Y0119600D03*
X0098600Y0115600D03*
X0144600Y0191600D03*
X0128600Y0211600D03*
X0163600Y0221100D03*
X0171600Y0221100D03*
M02*
